<?xml version="1.0" encoding="UTF-8"?>
<svg version="1.1" xmlns="http://www.w3.org/2000/svg" width="394" height="163">
<path d="M0 0 C2.875 1 2.875 1 5 2 C5 2.66 5 3.32 5 4 C5.66 4 6.32 4 7 4 C10.74616635 9.69417285 9.62752118 18.43238308 9 25 C7.44212449 31.68506075 2.52296184 36.1946073 -3 40 C-4.64663641 40.71471027 -6.31012079 41.3945824 -8 42 C-7.07316406 42.06058594 -6.14632812 42.12117188 -5.19140625 42.18359375 C-3.99386719 42.26738281 -2.79632813 42.35117187 -1.5625 42.4375 C-0.36753906 42.51871094 0.82742187 42.59992187 2.05859375 42.68359375 C5 43 5 43 6 44 C6.11148984 45.33432897 6.15666289 46.67431189 6.17358398 48.01318359 C6.18707382 48.86431732 6.20056366 49.71545105 6.21446228 50.59237671 C6.23011986 51.9813768 6.23011986 51.9813768 6.24609375 53.3984375 C6.27903248 55.34115033 6.31224412 57.28385856 6.34570312 59.2265625 C6.39314804 62.30335298 6.43756536 65.38012478 6.47680664 68.45703125 C6.51646428 71.41686855 6.56802714 74.37631456 6.62109375 77.3359375 C6.63371498 78.7188649 6.63371498 78.7188649 6.64659119 80.12973022 C6.66323318 80.98716827 6.67987518 81.84460632 6.69702148 82.72802734 C6.71248268 83.85934586 6.71248268 83.85934586 6.72825623 85.01351929 C6.89608539 87.31733938 6.89608539 87.31733938 9 90 C11.66653905 90.36460453 11.66653905 90.36460453 14.625 90.1875 C15.62789062 90.16042969 16.63078125 90.13335937 17.6640625 90.10546875 C18.82035156 90.05326172 18.82035156 90.05326172 20 90 C20 89.34 20 88.68 20 88 C20.65266846 87.48655029 21.30533691 86.97310059 21.9777832 86.4440918 C25.00776604 82.78199374 24.48422031 79.50257223 24.35546875 74.89453125 C24.34342155 73.57481575 24.34342155 73.57481575 24.33113098 72.22843933 C24.30215604 69.42251019 24.24588197 66.61795784 24.1875 63.8125 C24.14505513 60.9965104 24.10821361 58.18055033 24.07600403 55.36442566 C24.05422658 53.61262382 24.02548862 51.86089269 23.98930359 50.10932922 C23.95574071 48.07315962 23.97261832 46.0362621 24 44 C24.33 43.67 24.66 43.34 25 43 C31.6 43 38.2 43 45 43 C45 64.12 45 85.24 45 107 C38.4 107 31.8 107 25 107 C24.67 105.35 24.34 103.7 24 102 C23.67 102.66 23.34 103.32 23 104 C22.34 104 21.68 104 21 104 C21.0611499 104.98395752 21.0611499 104.98395752 21.12353516 105.98779297 C21.30153073 108.94966036 21.46345902 111.91219159 21.625 114.875 C21.68945312 115.90753906 21.75390625 116.94007813 21.8203125 118.00390625 C21.871875 118.99003906 21.9234375 119.97617188 21.9765625 120.9921875 C22.02893066 121.90339355 22.08129883 122.81459961 22.13525391 123.75341797 C22 126 22 126 20 128 C18.16792297 128.37890625 18.16792297 128.37890625 15.9152832 128.5625 C15.06871658 128.63597656 14.22214996 128.70945313 13.34992981 128.78515625 C12.42621078 128.85605469 11.50249176 128.92695313 10.55078125 129 C9.58714157 129.08121094 8.62350189 129.16242188 7.63066101 129.24609375 C4.52524325 129.50589471 1.41897524 129.75319803 -1.6875 130 C-3.69993912 130.16582745 -5.71230997 130.3324856 -7.72460938 130.5 C-11.76762321 130.83556057 -15.81092584 131.16726045 -19.85449219 131.49609375 C-26.06964235 132.00349348 -32.28325678 132.52755153 -38.49609375 133.0625 C-39.89513191 133.18141602 -39.89513191 133.18141602 -41.32243347 133.30273438 C-46.68916687 133.76761016 -52.02962361 134.33251714 -57.375 135 C-64.1761132 135.84098022 -70.97930375 136.42010671 -77.8125 136.9375 C-88.16324565 137.7243153 -98.4731506 138.75381767 -108.79101562 139.88989258 C-116.96849062 140.78952936 -125.14929969 141.61354154 -133.34277344 142.35351562 C-136.86434361 142.67643532 -140.33274438 143.05019997 -143.83203125 143.578125 C-147.44500365 144.05926066 -150.43700779 143.71259844 -154 143 C-155.58826118 141.41173882 -155.33245036 139.6420645 -155.53515625 137.44140625 C-155.62216797 136.49716797 -155.70917969 135.55292969 -155.79882812 134.58007812 C-155.88583984 133.58427734 -155.97285156 132.58847656 -156.0625 131.5625 C-156.15337891 130.60150391 -156.24425781 129.64050781 -156.33789062 128.65039062 C-156.89702341 122.41584985 -157.11581489 116.25829345 -157 110 C-148.34034185 108.4361612 -139.69448869 107.34706017 -130.9375 106.5 C-129.64416748 106.37254395 -128.35083496 106.24508789 -127.01831055 106.11376953 C-116.00047563 105.04224414 -104.96864244 104.19728521 -93.92578125 103.4296875 C-91.95051504 103.28653819 -89.97525457 103.14330984 -88 103 C-86.96407715 102.93200195 -85.9281543 102.86400391 -84.86083984 102.79394531 C-83.86906738 102.72014648 -82.87729492 102.64634766 -81.85546875 102.5703125 C-80.96883545 102.50859863 -80.08220215 102.44688477 -79.16870117 102.38330078 C-76.79533529 102.1774997 -76.79533529 102.1774997 -75 100 C-75 99.34 -75 98.68 -75 98 C-75.66 98 -76.32 98 -77 98 C-79.34728069 94.33237392 -79.4430704 91.28301385 -79 87 C-77.06939839 83.5382316 -74.94772458 80.65295213 -72 78 C-72.639375 77.278125 -73.27875 76.55625 -73.9375 75.8125 C-76.05904706 72.91948128 -76.91335246 71.55254911 -77 68 C-75.875 64.8125 -75.875 64.8125 -74 62 C-71.3828125 60.82421875 -71.3828125 60.82421875 -69 60 C-69.40992188 59.41992188 -69.81984375 58.83984375 -70.2421875 58.2421875 C-74.86888138 51.53458824 -77.75596326 46.52902389 -76.53125 38.234375 C-74.90568603 31.39744419 -70.63363588 26.97668415 -65 23 C-57.56322692 19.1909211 -48.20979124 19.0338184 -40.1875 20.875 C-38.6096875 20.936875 -38.6096875 20.936875 -37 21 C-34.68917495 18.49270713 -34.68917495 18.49270713 -33.37109375 16.5703125 C-30.88150222 13.71898545 -27.61312253 12.80595172 -24 12 C-20.0625 11.75 -20.0625 11.75 -17 12 C-16 13 -16 13 -15.8671875 15.90625 C-15.86976563 17.0921875 -15.87234375 18.278125 -15.875 19.5 C-15.87242187 20.6859375 -15.86984375 21.871875 -15.8671875 23.09375 C-16 26 -16 26 -17 27 C-18.51469448 27.23192865 -20.03754562 27.41215238 -21.5625 27.5625 C-22.80193359 27.68818359 -22.80193359 27.68818359 -24.06640625 27.81640625 C-24.70449219 27.87699219 -25.34257812 27.93757813 -26 28 C-25.34 29.0725 -24.68 30.145 -24 31.25 C-20.99863581 37.29560501 -20.80143341 43.91275326 -22.6953125 50.37109375 C-25.0632525 55.63428812 -28.54910195 59.49446967 -33.93847656 61.84570312 C-39.6950723 63.85827836 -44.98692247 64.52253087 -51.0625 64.6875 C-51.92810547 64.72166016 -52.79371094 64.75582031 -53.68554688 64.79101562 C-55.78994387 64.87240114 -57.8949457 64.93789769 -60 65 C-60.33 65.66 -60.66 66.32 -61 67 C-60.3201001 67.01981934 -59.6402002 67.03963867 -58.93969727 67.06005859 C-55.81362259 67.15621282 -52.68813527 67.26552066 -49.5625 67.375 C-48.49322266 67.4059375 -47.42394531 67.436875 -46.32226562 67.46875 C-36.95669399 67.8124407 -28.85075531 68.61222675 -21 74 C-16.88197904 78.44312788 -15.72054569 81.77366788 -15.765625 87.859375 C-16.14137559 91.29123035 -17.46301407 93.92602814 -19 97 C-17.35 97 -15.7 97 -14 97 C-14.16153564 96.23268555 -14.32307129 95.46537109 -14.48950195 94.67480469 C-15.16171094 89.83592869 -15.16248826 85.08279741 -15.16796875 80.203125 C-15.17129715 79.17314392 -15.17462555 78.14316284 -15.17805481 77.08197021 C-15.18310222 74.91353806 -15.18546381 72.74509818 -15.18530273 70.57666016 C-15.18750159 67.24759367 -15.20571407 63.91885221 -15.22460938 60.58984375 C-15.2275412 58.48177197 -15.22952741 56.37369861 -15.23046875 54.265625 C-15.23765427 53.26670227 -15.24483978 52.26777954 -15.25224304 51.23858643 C-15.24916641 50.3171283 -15.24608978 49.39567017 -15.24291992 48.44628906 C-15.24434494 47.63387756 -15.24576996 46.82146606 -15.24723816 45.98443604 C-15 44 -15 44 -13 42 C-13.33 40.906875 -13.66 39.81375 -14 38.6875 C-15 35 -15 35 -15 32 C-13.3203125 30.75390625 -13.3203125 30.75390625 -11.125 29.5625 C-7.84558876 27.78174443 -6.40771352 26.48964772 -5 23 C-5.7425 22.9175 -6.485 22.835 -7.25 22.75 C-10.74600961 21.79654283 -11.91425032 20.97964239 -14 18 C-15.15528685 13.7953846 -15.48976212 10.29642913 -13.9375 6.1875 C-9.85603109 1.57938994 -6.24054531 -0.79666536 0 0 Z M-53 33 C-53 33.66 -53 34.32 -53 35 C-53.99 35.33 -54.98 35.66 -56 36 C-57.73265104 39.46530209 -57.4643626 43.21107035 -57 47 C-55.68620182 49.73061576 -55.68620182 49.73061576 -53 51 C-50.09019382 51.50350771 -48.01914221 51.33546025 -45 51 C-42.90131895 49.44416486 -42.1260936 48.42616444 -41.3828125 45.9140625 C-40.94028589 41.9849626 -40.69317407 39.6694384 -42.375 36 C-43.8449367 34.12076359 -43.8449367 34.12076359 -45 33 C-47.67058851 32.85884839 -50.32432238 32.95752893 -53 33 Z M-58 84 C-58 84.66 -58 85.32 -58 86 C-58.66 86 -59.32 86 -60 86 C-60 87.32 -60 88.64 -60 90 C-54.92890638 93.70052778 -50.17251244 94.49984564 -44 94 C-40.63178728 93.10202887 -40.63178728 93.10202887 -38 92 C-38 91.34 -38 90.68 -38 90 C-37.34 90 -36.68 90 -36 90 C-36 88.68 -36 87.36 -36 86 C-41.37942371 82.41371752 -52.0078661 81.00393305 -58 84 Z M2 105 C2.33 105.99 2.66 106.98 3 108 C3.66 108 4.32 108 5 108 C4.67 107.01 4.34 106.02 4 105 C3.34 105 2.68 105 2 105 Z M-29 108 C-29 108.66 -29 109.32 -29 110 C-28.01 109.67 -27.02 109.34 -26 109 C-26.99 108.67 -27.98 108.34 -29 108 Z M-40 110 C-39 112 -39 112 -39 112 Z M-31 110 C-31.33 111.32 -31.66 112.64 -32 114 C-31.34 114 -30.68 114 -30 114 C-30.33 112.68 -30.66 111.36 -31 110 Z M-4 110 C-4 111.65 -4 113.3 -4 115 C-3.67 115 -3.34 115 -3 115 C-3 113.35 -3 111.7 -3 110 C-3.33 110 -3.66 110 -4 110 Z M-62 111 C-62 111.33 -62 111.66 -62 112 C-59.36 112 -56.72 112 -54 112 C-54 111.67 -54 111.34 -54 111 C-56.64 111 -59.28 111 -62 111 Z M-18 111 C-18 114 -18 114 -18 114 Z M-54 112 C-54.33 112.66 -54.66 113.32 -55 114 C-54.34 114 -53.68 114 -53 114 C-53.33 113.34 -53.66 112.68 -54 112 Z M-48 113 C-48 114.32 -48 115.64 -48 117 C-47.34 117 -46.68 117 -46 117 C-46 115.68 -46 114.36 -46 113 C-46.66 113 -47.32 113 -48 113 Z M-17 113 C-16 115 -16 115 -16 115 Z M-62 115 C-61 117 -61 117 -61 117 Z M-19 115 C-19 116.32 -19 117.64 -19 119 C-18.01 118.67 -17.02 118.34 -16 118 C-16.33 117.01 -16.66 116.02 -17 115 C-17.66 115 -18.32 115 -19 115 Z M4 115 C5 117 5 117 5 117 Z M-115 117 C-114.34 118.65 -113.68 120.3 -113 122 C-112.67 120.68 -112.34 119.36 -112 118 C-112.99 117.67 -113.98 117.34 -115 117 Z M-97 117 C-97 118.65 -97 120.3 -97 122 C-96.67 122 -96.34 122 -96 122 C-96 120.35 -96 118.7 -96 117 C-96.33 117 -96.66 117 -97 117 Z M-60 117 C-59 119 -59 119 -59 119 Z M-141 118 C-141.33 118.66 -141.66 119.32 -142 120 C-141.34 120 -140.68 120 -140 120 C-140.33 119.34 -140.66 118.68 -141 118 Z M-105 118 C-105 118.66 -105 119.32 -105 120 C-104.34 120 -103.68 120 -103 120 C-103 119.34 -103 118.68 -103 118 C-103.66 118 -104.32 118 -105 118 Z M-99 119 C-98 121 -98 121 -98 121 Z M-46 119 C-45 121 -45 121 -45 121 Z M-54 120 C-54 120.66 -54 121.32 -54 122 C-53.01 121.67 -52.02 121.34 -51 121 C-51.99 120.67 -52.98 120.34 -54 120 Z M-74 121 C-73.67 122.32 -73.34 123.64 -73 125 C-72.67 124.34 -72.34 123.68 -72 123 C-72.66 122.34 -73.32 121.68 -74 121 Z M-131 122 C-131 122.99 -131 123.98 -131 125 C-130.34 124.67 -129.68 124.34 -129 124 C-129.66 123.34 -130.32 122.68 -131 122 Z M-120 122 C-119 124 -119 124 -119 124 Z M-80 122 C-80.33 122.99 -80.66 123.98 -81 125 C-80.34 125 -79.68 125 -79 125 C-79.33 124.01 -79.66 123.02 -80 122 Z M-108 123 C-108 123.66 -108 124.32 -108 125 C-106.68 125.33 -105.36 125.66 -104 126 C-104.97850195 124.97895449 -105.97980427 123.9793879 -107 123 C-107.33 123 -107.66 123 -108 123 Z M-131 126 C-130.34 126.66 -129.68 127.32 -129 128 C-129 127.34 -129 126.68 -129 126 C-129.66 126 -130.32 126 -131 126 Z " fill="#FABF0B" transform="translate(234,14)"/>
<path d="M0 0 C6.39959198 3.83435469 10.1517678 9.45906468 12.5625 16.4375 C12.96014263 18.42571313 13.31705166 20.42482362 13.5625 22.4375 C14.8825 19.4675 16.2025 16.4975 17.5625 13.4375 C18.2225 13.4375 18.8825 13.4375 19.5625 13.4375 C19.82933594 12.84066406 20.09617187 12.24382813 20.37109375 11.62890625 C22.9862156 6.81879689 27.52967012 3.56992364 32.5625 1.5625 C42.91824032 -1.38870927 54.01788555 -0.48089826 63.5625 4.4375 C70.45501861 8.85911571 74.9912382 16.14039211 76.9375 24.0625 C78.80360689 34.95447084 77.47862925 45.84544658 71.40625 55.20703125 C66.65163019 60.95891241 59.76597478 64.73954476 52.43359375 65.95703125 C41.91607123 66.85443078 32.12281152 66.08016075 23.2421875 59.87109375 C17.36791997 54.85747472 15.37894352 48.77711325 13.5625 41.4375 C13.32015625 42.08976562 13.0778125 42.74203125 12.828125 43.4140625 C9.44489928 52.23647418 6.2634347 58.20633249 -2.4375 62.4375 C-9.37553322 65.2017657 -16.02422656 64.86486889 -22.875 62 C-25.4375 60.4375 -25.4375 60.4375 -27.4375 58.4375 C-27.7675 67.0175 -28.0975 75.5975 -28.4375 84.4375 C-35.3675 84.4375 -42.2975 84.4375 -49.4375 84.4375 C-49.46005062 73.50253161 -49.47841485 62.56757854 -49.48931217 51.6325922 C-49.4945411 46.55558982 -49.50163892 41.47860411 -49.51293945 36.40161133 C-49.52376799 31.50629448 -49.52977676 26.61099371 -49.53237724 21.71566582 C-49.53423155 19.84367049 -49.53785228 17.97167609 -49.54323006 16.09968758 C-49.55044004 13.48709301 -49.55149096 10.87456573 -49.55102539 8.26196289 C-49.55462067 7.48009613 -49.55821594 6.69822937 -49.56192017 5.89266968 C-49.55155216 0.55155216 -49.55155216 0.55155216 -48.4375 -0.5625 C-47.10706375 -0.6608721 -45.77156656 -0.69328592 -44.4375 -0.6953125 C-43.633125 -0.69660156 -42.82875 -0.69789062 -42 -0.69921875 C-41.154375 -0.69535156 -40.30875 -0.69148438 -39.4375 -0.6875 C-38.1690625 -0.69330078 -38.1690625 -0.69330078 -36.875 -0.69921875 C-36.070625 -0.69792969 -35.26625 -0.69664063 -34.4375 -0.6953125 C-33.695 -0.69418457 -32.9525 -0.69305664 -32.1875 -0.69189453 C-30.4375 -0.5625 -30.4375 -0.5625 -29.4375 0.4375 C-29.39686168 2.10367115 -29.394779 3.77138095 -29.4375 5.4375 C-28.82261719 5.01597656 -28.20773438 4.59445313 -27.57421875 4.16015625 C-26.76597656 3.61230469 -25.95773438 3.06445312 -25.125 2.5 C-24.32449219 1.95472656 -23.52398437 1.40945312 -22.69921875 0.84765625 C-16.39988635 -3.07990678 -6.7085524 -3.0422505 0 0 Z M-24.4375 16.4375 C-24.4375 17.0975 -24.4375 17.7575 -24.4375 18.4375 C-25.0975 18.4375 -25.7575 18.4375 -26.4375 18.4375 C-29.18882454 22.56448681 -28.8420454 25.89835125 -28.875 30.75 C-28.90787109 31.59240234 -28.94074219 32.43480469 -28.97460938 33.30273438 C-29.01191237 37.64005513 -28.83955971 40.52599452 -26.02734375 43.953125 C-23.10295508 46.89416289 -23.10295508 46.89416289 -19.4375 48.4375 C-15.68683584 48.30354771 -13.25491069 47.98980452 -10.125 45.875 C-5.87862135 39.74134195 -5.80230816 32.24113832 -6.75 25.07421875 C-7.38883619 21.58913919 -8.14691854 18.9140536 -10 15.875 C-14.75550848 13.07046936 -19.93185628 13.43373752 -24.4375 16.4375 Z M38.5625 17.4375 C34.80342205 22.70564722 33.94906164 26.61514032 34.125 33 C34.11791016 33.72896484 34.11082031 34.45792969 34.10351562 35.20898438 C34.15937704 39.98298691 34.97682033 43.29666516 37.5625 47.4375 C40.25799602 49.62303732 42.08462274 50.35615919 45.5 50.9375 C49.55034345 50.27621944 52.01475287 48.55492971 54.5625 45.4375 C57.88033437 37.74615669 57.48068222 29.04333087 54.53515625 21.2890625 C53.03029038 18.42437808 51.60471143 17.47461753 48.5625 16.4375 C44.80314683 16.17823426 42.13884313 16.24538562 38.5625 17.4375 Z " fill="#C5182E" transform="translate(79.4375,32.5625)"/>
<path d="M0 0 C0.66 0.474375 1.32 0.94875 2 1.4375 C2 2.0975 2 2.7575 2 3.4375 C2.66 3.4375 3.32 3.4375 4 3.4375 C6 6.4375 6 6.4375 6 9.4375 C6.66 9.7675 7.32 10.0975 8 10.4375 C8.6328125 12.94140625 8.6328125 12.94140625 9.125 16 C9.37636719 17.51787109 9.37636719 17.51787109 9.6328125 19.06640625 C9.81457031 20.24009766 9.81457031 20.24009766 10 21.4375 C10.5775 20.65375 11.155 19.87 11.75 19.0625 C14.33231944 16.04979398 16.20333917 14.68903252 20.1484375 14.13671875 C25.14762065 14.11040726 28.8514569 14.35021211 33 17.4375 C35.39768876 20.79426426 37.03683688 23.89035104 36.9375 28.0625 C36.628125 28.84625 36.31875 29.63 36 30.4375 C35.608125 31.46875 35.21625 32.5 34.8125 33.5625 C32.55198266 37.1481482 30.99879807 38.07941764 27 39.4375 C20.56135679 40.1529048 17.29049699 39.14084789 12 35.4375 C11.34 34.4475 10.68 33.4575 10 32.4375 C10.04125 33.63375 10.0825 34.83 10.125 36.0625 C10.13851708 39.86079953 9.42009753 42.88725618 8 46.4375 C7.34 46.4375 6.68 46.4375 6 46.4375 C5.9071875 47.241875 5.9071875 47.241875 5.8125 48.0625 C4.17023469 52.86296782 0.30413752 56.82893181 -4 59.4375 C-10.12775997 62.34818599 -18.0428925 62.75653583 -24.484375 60.609375 C-27.36024441 59.20292792 -29.73255404 57.70494596 -32 55.4375 C-32.33 64.3475 -32.66 73.2575 -33 82.4375 C-39.6 82.4375 -46.2 82.4375 -53 82.4375 C-53 54.3875 -53 26.3375 -53 -2.5625 C-46.73 -2.5625 -40.46 -2.5625 -34 -2.5625 C-33.34 -0.9125 -32.68 0.7375 -32 2.4375 C-31.154375 1.65375 -30.30875 0.87 -29.4375 0.0625 C-20.18991613 -7.5824581 -9.62811033 -5.0146408 0 0 Z M-24 11.4375 C-24 12.0975 -24 12.7575 -24 13.4375 C-24.5775 13.499375 -25.155 13.56125 -25.75 13.625 C-29.07584645 14.82600011 -30.11312271 16.46068738 -32 19.4375 C-32.54871761 22.26770861 -32.5149089 25.0008826 -32.4375 27.875 C-32.44458984 28.61298828 -32.45167969 29.35097656 -32.45898438 30.11132812 C-32.40321359 34.9376457 -31.52866362 38.20517442 -29 42.4375 C-28.34 42.4375 -27.68 42.4375 -27 42.4375 C-27 43.0975 -27 43.7575 -27 44.4375 C-23.7645911 46.05520445 -20.49775016 46.00143669 -17 45.4375 C-12.99284724 42.8241395 -11.69390832 40.20223118 -10.625 35.6875 C-9.40434188 27.94898812 -10.04438524 19.59725411 -14.6875 13.0625 C-17.85418549 10.83726155 -20.22233882 11.14691068 -24 11.4375 Z " fill="#424040" transform="translate(333,59.5625)"/>
<path d="M0 0 C1 1 1 1 1.1328125 3.90625 C1.13023437 5.0921875 1.12765625 6.278125 1.125 7.5 C1.12886719 9.27890625 1.12886719 9.27890625 1.1328125 11.09375 C1 14 1 14 0 15 C-1.51469448 15.23192865 -3.03754562 15.41215238 -4.5625 15.5625 C-5.38878906 15.64628906 -6.21507812 15.73007812 -7.06640625 15.81640625 C-7.70449219 15.87699219 -8.34257812 15.93757813 -9 16 C-8.34 17.0725 -7.68 18.145 -7 19.25 C-3.99863581 25.29560501 -3.80143341 31.91275326 -5.6953125 38.37109375 C-8.0632525 43.63428812 -11.54910195 47.49446967 -16.93847656 49.84570312 C-22.6950723 51.85827836 -27.98692247 52.52253087 -34.0625 52.6875 C-34.92810547 52.72166016 -35.79371094 52.75582031 -36.68554688 52.79101562 C-38.78994387 52.87240114 -40.8949457 52.93789769 -43 53 C-43.33 53.66 -43.66 54.32 -44 55 C-43.3201001 55.01981934 -42.6402002 55.03963867 -41.93969727 55.06005859 C-38.81362259 55.15621282 -35.68813527 55.26552066 -32.5625 55.375 C-30.95858398 55.42140625 -30.95858398 55.42140625 -29.32226562 55.46875 C-19.95669399 55.8124407 -11.85075531 56.61222675 -4 62 C0.19722626 66.52858623 1.09781932 69.71707754 1.23046875 75.8671875 C0.82048504 79.66127404 -0.21348148 82.22921185 -2.953125 84.9140625 C-15.38369665 94.17356996 -28.24466036 95.57942293 -43.4921875 93.69140625 C-48.57205379 92.53874583 -53.31779462 90.23271831 -58 88 C-58 87.34 -58 86.68 -58 86 C-58.66 86 -59.32 86 -60 86 C-62.34728069 82.33237392 -62.4430704 79.28301385 -62 75 C-60.06939839 71.5382316 -57.94772458 68.65295213 -55 66 C-55.639375 65.278125 -56.27875 64.55625 -56.9375 63.8125 C-59.05904706 60.91948128 -59.91335246 59.55254911 -60 56 C-58.875 52.8125 -58.875 52.8125 -57 50 C-54.3828125 48.82421875 -54.3828125 48.82421875 -52 48 C-52.40992188 47.41992188 -52.81984375 46.83984375 -53.2421875 46.2421875 C-57.86888138 39.53458824 -60.75596326 34.52902389 -59.53125 26.234375 C-57.90568603 19.39744419 -53.63363588 14.97668415 -48 11 C-40.56322692 7.1909211 -31.20979124 7.0338184 -23.1875 8.875 C-22.135625 8.91625 -21.08375 8.9575 -20 9 C-17.68917495 6.49270713 -17.68917495 6.49270713 -16.37109375 4.5703125 C-12.35369579 -0.03080995 -5.71621504 -0.4666298 0 0 Z M-36 21 C-36 21.66 -36 22.32 -36 23 C-36.99 23.33 -37.98 23.66 -39 24 C-40.73265104 27.46530209 -40.4643626 31.21107035 -40 35 C-38.68620182 37.73061576 -38.68620182 37.73061576 -36 39 C-33.09019382 39.50350771 -31.01914221 39.33546025 -28 39 C-25.90131895 37.44416486 -25.1260936 36.42616444 -24.3828125 33.9140625 C-23.94028589 29.9849626 -23.69317407 27.6694384 -25.375 24 C-26.8449367 22.12076359 -26.8449367 22.12076359 -28 21 C-30.67058851 20.85884839 -33.32432238 20.95752893 -36 21 Z M-41 72 C-41 72.66 -41 73.32 -41 74 C-41.66 74 -42.32 74 -43 74 C-43 75.32 -43 76.64 -43 78 C-37.92890638 81.70052778 -33.17251244 82.49984564 -27 82 C-23.63178728 81.10202887 -23.63178728 81.10202887 -21 80 C-21 79.34 -21 78.68 -21 78 C-20.34 78 -19.68 78 -19 78 C-19 76.68 -19 75.36 -19 74 C-24.37942371 70.41371752 -35.0078661 69.00393305 -41 72 Z " fill="#C5162C" transform="translate(217,26)"/>
<path d="M0 0 C2.875 1 2.875 1 5 2 C5 2.66 5 3.32 5 4 C5.66 4 6.32 4 7 4 C10.74616635 9.69417285 9.62752118 18.43238308 9 25 C7.44212449 31.68506075 2.52296184 36.1946073 -3 40 C-4.64663641 40.71471027 -6.31012079 41.3945824 -8 42 C-6.60974609 42.09087891 -6.60974609 42.09087891 -5.19140625 42.18359375 C-3.99386719 42.26738281 -2.79632813 42.35117187 -1.5625 42.4375 C-0.36753906 42.51871094 0.82742187 42.59992187 2.05859375 42.68359375 C5 43 5 43 6 44 C6.11148984 45.33432897 6.15666289 46.67431189 6.17358398 48.01318359 C6.18707382 48.86431732 6.20056366 49.71545105 6.21446228 50.59237671 C6.22490067 51.51837677 6.23533905 52.44437683 6.24609375 53.3984375 C6.27903248 55.34115033 6.31224412 57.28385856 6.34570312 59.2265625 C6.39314804 62.30335298 6.43756536 65.38012478 6.47680664 68.45703125 C6.51646428 71.41686855 6.56802714 74.37631456 6.62109375 77.3359375 C6.6295079 78.2578891 6.63792206 79.1798407 6.64659119 80.12973022 C6.66323318 80.98716827 6.67987518 81.84460632 6.69702148 82.72802734 C6.70732895 83.48223969 6.71763641 84.23645203 6.72825623 85.01351929 C6.89608539 87.31733938 6.89608539 87.31733938 9 90 C11.66653905 90.36460453 11.66653905 90.36460453 14.625 90.1875 C15.62789062 90.16042969 16.63078125 90.13335937 17.6640625 90.10546875 C18.82035156 90.05326172 18.82035156 90.05326172 20 90 C20 89.34 20 88.68 20 88 C20.65266846 87.48655029 21.30533691 86.97310059 21.9777832 86.4440918 C25.00776604 82.78199374 24.48422031 79.50257223 24.35546875 74.89453125 C24.34743729 74.01472092 24.33940582 73.13491058 24.33113098 72.22843933 C24.30215604 69.42251019 24.24588197 66.61795784 24.1875 63.8125 C24.14505513 60.9965104 24.10821361 58.18055033 24.07600403 55.36442566 C24.05422658 53.61262382 24.02548862 51.86089269 23.98930359 50.10932922 C23.95574071 48.07315962 23.97261832 46.0362621 24 44 C24.33 43.67 24.66 43.34 25 43 C31.6 43 38.2 43 45 43 C45 64.12 45 85.24 45 107 C38.4 107 31.8 107 25 107 C24.67 105.35 24.34 103.7 24 102 C23.67 102.33 23.34 102.66 23 103 C21.33382885 103.04063832 19.66611905 103.042721 18 103 C18 100.36 18 97.72 18 95 C16.40285156 95.2165625 16.40285156 95.2165625 14.7734375 95.4375 C5.43929934 96.64950127 -3.57350742 97.26890153 -13 97 C-15.37204612 91.39141826 -15.29005687 86.18261151 -15.265625 80.203125 C-15.26753845 79.17314392 -15.2694519 78.14316284 -15.27142334 77.08197021 C-15.27278028 74.91353103 -15.26911821 72.74508359 -15.26074219 70.57666016 C-15.24999205 67.24753785 -15.26067666 63.91894983 -15.2734375 60.58984375 C-15.27211668 58.48176964 -15.26955588 56.37369586 -15.265625 54.265625 C-15.26967346 53.26670227 -15.27372192 52.26777954 -15.27789307 51.23858643 C-15.27158875 50.3171283 -15.26528442 49.39567017 -15.25878906 48.44628906 C-15.25640228 47.22767181 -15.25640228 47.22767181 -15.25396729 45.98443604 C-15 44 -15 44 -13 42 C-13.33 40.906875 -13.66 39.81375 -14 38.6875 C-15 35 -15 35 -15 32 C-13.3203125 30.75390625 -13.3203125 30.75390625 -11.125 29.5625 C-7.84558876 27.78174443 -6.40771352 26.48964772 -5 23 C-5.7425 22.9175 -6.485 22.835 -7.25 22.75 C-10.74600961 21.79654283 -11.91425032 20.97964239 -14 18 C-15.15528685 13.7953846 -15.48976212 10.29642913 -13.9375 6.1875 C-9.85603109 1.57938994 -6.24054531 -0.79666536 0 0 Z " fill="#444240" transform="translate(234,14)"/>
<path d="M0 0 C0.495 0.99 0.495 0.99 1 2 C1.82238159 1.90912109 1.82238159 1.90912109 2.66137695 1.81640625 C22.79165053 -0.38016122 22.79165053 -0.38016122 32 0 C32 2.64 32 5.28 32 8 C33.65 8 35.3 8 37 8 C36.34 8.33 35.68 8.66 35 9 C35.0611499 9.98395752 35.0611499 9.98395752 35.12353516 10.98779297 C35.30153073 13.94966036 35.46345902 16.91219159 35.625 19.875 C35.68945312 20.90753906 35.75390625 21.94007813 35.8203125 23.00390625 C35.871875 23.99003906 35.9234375 24.97617188 35.9765625 25.9921875 C36.02893066 26.90339355 36.08129883 27.81459961 36.13525391 28.75341797 C36 31 36 31 34 33 C32.16792297 33.37890625 32.16792297 33.37890625 29.9152832 33.5625 C29.06871658 33.63597656 28.22214996 33.70945313 27.34992981 33.78515625 C25.96435127 33.89150391 25.96435127 33.89150391 24.55078125 34 C23.58714157 34.08121094 22.62350189 34.16242188 21.63066101 34.24609375 C18.52524325 34.50589471 15.41897524 34.75319803 12.3125 35 C10.30006088 35.16582745 8.28769003 35.3324856 6.27539062 35.5 C2.23237679 35.83556057 -1.81092584 36.16726045 -5.85449219 36.49609375 C-12.06964235 37.00349348 -18.28325678 37.52755153 -24.49609375 38.0625 C-25.89513191 38.18141602 -25.89513191 38.18141602 -27.32243347 38.30273438 C-32.68915687 38.7676093 -38.02966174 39.33226407 -43.375 40 C-51.71199482 41.03641979 -60.07105 41.68560325 -68.44873047 42.30273438 C-73.36096332 42.67171383 -78.14115172 43.17695586 -83 44 C-84.95740193 44.06388388 -86.91670147 44.08638169 -88.875 44.0625 C-89.84179688 44.05347656 -90.80859375 44.04445312 -91.8046875 44.03515625 C-92.52914062 44.02355469 -93.25359375 44.01195312 -94 44 C-85.56210757 39.25453823 -74.25855805 39.55090562 -64.8125 38.875 C-63.70197266 38.78863281 -62.59144531 38.70226562 -61.44726562 38.61328125 C-55.27864378 38.15364414 -49.18522093 37.90856062 -43 38 C-43 37.34 -43 36.68 -43 36 C-31.615 35.505 -31.615 35.505 -20 35 C-20 34.01 -20 33.02 -20 32 C-20 31.34 -20 30.68 -20 30 C-21.65 30.33 -23.3 30.66 -25 31 C-25 30.34 -25 29.68 -25 29 C-26.3921875 29.061875 -26.3921875 29.061875 -27.8125 29.125 C-31 29 -31 29 -34 27 C-34 26.34 -34 25.68 -34 25 C-34.66 25 -35.32 25 -36 25 C-36 26.32 -36 27.64 -36 29 C-37.32 29 -38.64 29 -40 29 C-40 28.34 -40 27.68 -40 27 C-40.99 27 -41.98 27 -43 27 C-43.33 28.32 -43.66 29.64 -44 31 C-46.66626359 31.19693992 -49.33256639 31.38274782 -52 31.5625 C-52.74378906 31.61857422 -53.48757812 31.67464844 -54.25390625 31.73242188 C-59.33002118 32.06347285 -63.97011262 31.77163045 -69 31 C-69.33 28.69 -69.66 26.38 -70 24 C-70.99 24.33 -71.98 24.66 -73 25 C-75.6875 23.5625 -75.6875 23.5625 -78 22 C-77 20 -77 20 -76 19 C-73.32941149 18.85884839 -70.67567762 18.95752893 -68 19 C-67.67 18.34 -67.34 17.68 -67 17 C-66.34 17 -65.68 17 -65 17 C-64.67 17.99 -64.34 18.98 -64 20 C-63.34 20.33 -62.68 20.66 -62 21 C-62 19.02 -62 17.04 -62 15 C-58.27171115 14.77333724 -54.54246959 14.57190301 -50.8125 14.375 C-49.22985352 14.27832031 -49.22985352 14.27832031 -47.61523438 14.1796875 C-46.59365234 14.128125 -45.57207031 14.0765625 -44.51953125 14.0234375 C-43.58214111 13.97106934 -42.64475098 13.91870117 -41.67895508 13.86474609 C-38.73712195 14.01327207 -36.65646126 14.76551443 -34 16 C-34 15.01 -34 14.02 -34 13 C-35.07121094 12.95101562 -36.14242187 12.90203125 -37.24609375 12.8515625 C-38.64325639 12.77654706 -40.0403905 12.7009987 -41.4375 12.625 C-42.14455078 12.5940625 -42.85160156 12.563125 -43.58007812 12.53125 C-45.39239188 12.42719371 -47.19817988 12.22080108 -49 12 C-49.495 11.01 -49.495 11.01 -50 10 C-49.07102905 10.00785522 -49.07102905 10.00785522 -48.12329102 10.01586914 C-45.26970467 10.03688073 -42.41613469 10.04973614 -39.5625 10.0625 C-38.10166992 10.07506836 -38.10166992 10.07506836 -36.61132812 10.08789062 C-24.97103784 10.43132198 -24.97103784 10.43132198 -14.25 6.625 C-13.5075 6.1815625 -12.765 5.738125 -12 5.28125 C-10.39929141 4.25579606 -8.82066313 3.19590668 -7.25 2.125 C-4.41801144 0.70900572 -2.96467558 1.06824482 0 2 C0 1.34 0 0.68 0 0 Z M16 10 C16.33 10.99 16.66 11.98 17 13 C17.66 13 18.32 13 19 13 C18.67 12.01 18.34 11.02 18 10 C17.34 10 16.68 10 16 10 Z M-15 13 C-15 13.66 -15 14.32 -15 15 C-14.01 14.67 -13.02 14.34 -12 14 C-12.99 13.67 -13.98 13.34 -15 13 Z M-26 15 C-25 17 -25 17 -25 17 Z M-17 15 C-17.33 16.32 -17.66 17.64 -18 19 C-17.34 19 -16.68 19 -16 19 C-16.33 17.68 -16.66 16.36 -17 15 Z M10 15 C10 16.65 10 18.3 10 20 C10.33 20 10.66 20 11 20 C11 18.35 11 16.7 11 15 C10.67 15 10.34 15 10 15 Z M-48 16 C-48 16.33 -48 16.66 -48 17 C-45.36 17 -42.72 17 -40 17 C-40 16.67 -40 16.34 -40 16 C-42.64 16 -45.28 16 -48 16 Z M-4 16 C-4 19 -4 19 -4 19 Z M-40 17 C-40.33 17.66 -40.66 18.32 -41 19 C-40.34 19 -39.68 19 -39 19 C-39.33 18.34 -39.66 17.68 -40 17 Z M-34 18 C-34 19.32 -34 20.64 -34 22 C-33.34 22 -32.68 22 -32 22 C-32 20.68 -32 19.36 -32 18 C-32.66 18 -33.32 18 -34 18 Z M-3 18 C-2 20 -2 20 -2 20 Z M-48 20 C-47 22 -47 22 -47 22 Z M-5 20 C-5 21.32 -5 22.64 -5 24 C-4.01 23.67 -3.02 23.34 -2 23 C-2.33 22.01 -2.66 21.02 -3 20 C-3.66 20 -4.32 20 -5 20 Z M18 20 C19 22 19 22 19 22 Z M-46 22 C-45 24 -45 24 -45 24 Z M-32 24 C-31 26 -31 26 -31 26 Z M-40 25 C-40 25.66 -40 26.32 -40 27 C-39.01 26.67 -38.02 26.34 -37 26 C-37.99 25.67 -38.98 25.34 -40 25 Z M-60 26 C-59.67 27.32 -59.34 28.64 -59 30 C-58.67 29.34 -58.34 28.68 -58 28 C-58.66 27.34 -59.32 26.68 -60 26 Z M-66 27 C-66.33 27.99 -66.66 28.98 -67 30 C-66.34 30 -65.68 30 -65 30 C-65.33 29.01 -65.66 28.02 -66 27 Z " fill="#FBBE09" transform="translate(220,109)"/>
<path d="M0 0 C1 1 1 1 1.1328125 3.90625 C1.13023437 5.0921875 1.12765625 6.278125 1.125 7.5 C1.12886719 9.27890625 1.12886719 9.27890625 1.1328125 11.09375 C1 14 1 14 0 15 C-1.51469448 15.23192865 -3.03754562 15.41215238 -4.5625 15.5625 C-5.38878906 15.64628906 -6.21507812 15.73007812 -7.06640625 15.81640625 C-7.70449219 15.87699219 -8.34257812 15.93757813 -9 16 C-8.34 17.0725 -7.68 18.145 -7 19.25 C-3.99863581 25.29560501 -3.80143341 31.91275326 -5.6953125 38.37109375 C-8.38600647 44.35166985 -12.70735319 48.25826964 -18.75 50.8125 C-26.13674458 53.08338175 -34.36478668 52.22238485 -42 52 C-38.21175443 49.79592985 -35.490581 49.89092707 -31.21875 50.125 C-28.69546462 49.98284308 -27.16636013 49.26042771 -25 48 C-25 47.34 -25 46.68 -25 46 C-22.36 46.33 -19.72 46.66 -17 47 C-17.804375 46.113125 -18.60875 45.22625 -19.4375 44.3125 C-21.7039159 41.61712968 -22.68417366 39.57936522 -23 36 C-23.33 37.32 -23.66 38.64 -24 40 C-27.82752858 40.97428 -30.74670728 40.95514413 -34.625 40.25 C-35.56601563 40.09015625 -36.50703125 39.9303125 -37.4765625 39.765625 C-40.15065684 38.95428987 -41.25274921 38.1342258 -43 36 C-44.52299523 38.93720508 -45.80100302 41.9168649 -47 45 C-47.66 45 -48.32 45 -49 45 C-49.020625 45.7425 -49.04125 46.485 -49.0625 47.25 C-50.12788395 50.37512625 -50.70092733 50.75122451 -53.4375 52.375 C-54.613125 52.91125 -55.78875 53.4475 -57 54 C-57.66 53.67 -58.32 53.34 -59 53 C-57.37660195 51.29115995 -55.70680947 49.62553283 -54 48 C-53.34 48 -52.68 48 -52 48 C-52.40992188 47.41992188 -52.81984375 46.83984375 -53.2421875 46.2421875 C-57.86888138 39.53458824 -60.75596326 34.52902389 -59.53125 26.234375 C-57.90568603 19.39744419 -53.63363588 14.97668415 -48 11 C-40.56322692 7.1909211 -31.20979124 7.0338184 -23.1875 8.875 C-22.135625 8.91625 -21.08375 8.9575 -20 9 C-17.68917495 6.49270713 -17.68917495 6.49270713 -16.37109375 4.5703125 C-12.35369579 -0.03080995 -5.71621504 -0.4666298 0 0 Z M-36 21 C-36 21.66 -36 22.32 -36 23 C-36.99 23.33 -37.98 23.66 -39 24 C-40.73265104 27.46530209 -40.4643626 31.21107035 -40 35 C-38.68620182 37.73061576 -38.68620182 37.73061576 -36 39 C-33.09019382 39.50350771 -31.01914221 39.33546025 -28 39 C-25.90131895 37.44416486 -25.1260936 36.42616444 -24.3828125 33.9140625 C-23.94028589 29.9849626 -23.69317407 27.6694384 -25.375 24 C-26.8449367 22.12076359 -26.8449367 22.12076359 -28 21 C-30.67058851 20.85884839 -33.32432238 20.95752893 -36 21 Z M-23 42 C-22.34 42.66 -21.68 43.32 -21 44 C-21.99 44.495 -21.99 44.495 -23 45 C-23 44.01 -23 43.02 -23 42 Z " fill="#C51C32" transform="translate(217,26)"/>
<path d="M0 0 C0.33 0 0.66 0 1 0 C1 3.63 1 7.26 1 11 C1.99 10.67 2.98 10.34 4 10 C4 12.31 4 14.62 4 17 C2.68 17 1.36 17 0 17 C0.33 17.99 0.66 18.98 1 20 C1.10166116 21.59158327 1.15464648 23.18656332 1.17578125 24.78125 C1.19962891 25.70550781 1.22347656 26.62976563 1.24804688 27.58203125 C1.29101069 29.5271203 1.32226409 31.47250332 1.34179688 33.41796875 C1.36951172 34.34222656 1.39722656 35.26648438 1.42578125 36.21875 C1.44036377 37.06373047 1.45494629 37.90871094 1.4699707 38.77929688 C2.17492077 41.73287854 3.54760215 42.33073315 6 44 C7.125 46.9375 7.125 46.9375 8 50 C8.63815344 51.34721283 9.29325371 52.68747118 10 54 C7.75 55.125 7.75 55.125 5 56 C3.68 55.34 2.36 54.68 1 54 C0.67 63.24 0.34 72.48 0 82 C-5.28 82 -10.56 82 -16 82 C-16 55.6 -16 29.2 -16 2 C-12.20625098 1.2412502 -9.50548274 0.91004832 -5.75 1 C-4.16710998 1.03746485 -2.58263877 1.046893 -1 1 C-0.67 0.67 -0.34 0.34 0 0 Z " fill="#C61229" transform="translate(49,33)"/>
<path d="M0 0 C6.6 0 13.2 0 20 0 C20 21.12 20 42.24 20 64 C13.4 64 6.8 64 0 64 C-0.33 62.35 -0.66 60.7 -1 59 C-2.65 58.67 -4.3 58.34 -6 58 C-5.979375 56.9275 -5.95875 55.855 -5.9375 54.75 C-5.9857984 51.85209576 -6.13155885 49.71387859 -7 47 C-6.34 47 -5.68 47 -5 47 C-5 46.34 -5 45.68 -5 45 C-4.02099731 44.22982544 -4.02099731 44.22982544 -3.0222168 43.4440918 C0.00776604 39.78199374 -0.51577969 36.50257223 -0.64453125 31.89453125 C-0.65657845 30.57481575 -0.65657845 30.57481575 -0.66886902 29.22843933 C-0.69784396 26.42251019 -0.75411803 23.61795784 -0.8125 20.8125 C-0.85494487 17.9965104 -0.89178639 15.18055033 -0.92399597 12.36442566 C-0.94577342 10.61262382 -0.97451138 8.86089269 -1.01069641 7.10932922 C-1.04425929 5.07315962 -1.02738168 3.0362621 -1 1 C-0.67 0.67 -0.34 0.34 0 0 Z " fill="#454344" transform="translate(259,57)"/>
<path d="M0 0 C2.9719385 1.12451727 5.33440687 2.22293791 8 4 C8.66 4 9.32 4 10 4 C10.495 7.465 10.495 7.465 11 11 C19.25 11 27.5 11 36 11 C36.33 9.35 36.66 7.7 37 6 C37.99 6.33 38.98 6.66 40 7 C40 7.66 40 8.32 40 9 C41.32 9 42.64 9 44 9 C44 7.68 44 6.36 44 5 C44.66 5 45.32 5 46 5 C46 5.66 46 6.32 46 7 C47.43657245 7.33730842 48.87430093 7.66969591 50.3125 8 C51.11300781 8.185625 51.91351563 8.37125 52.73828125 8.5625 C55.10695938 9.09495823 55.10695938 9.09495823 58 9 C58.99 9.33 59.98 9.66 61 10 C61 11.32 61 12.64 61 14 C65.29 14 69.58 14 74 14 C74 14.33 74 14.66 74 15 C61.66826776 16.19684056 49.37632072 16.10396237 37 16 C37 16.66 37 17.32 37 18 C27.94221576 19.01407802 18.91882449 20.00257107 9.8125 20.4375 C4.61236683 20.71955851 -0.22700478 21.39189736 -5.3125 22.5 C-14.1719099 24.3268653 -23.01103999 24.50196191 -32.03637695 24.70898438 C-33.16648193 24.73541016 -34.29658691 24.76183594 -35.4609375 24.7890625 C-36.47978027 24.80662598 -37.49862305 24.82418945 -38.54833984 24.84228516 C-41.00568189 24.84081117 -41.00568189 24.84081117 -43 26 C-45.71975715 26.07187519 -48.40674632 26.0927862 -51.125 26.0625 C-53.72375 26.041875 -56.3225 26.02125 -59 26 C-59.33 19.73 -59.66 13.46 -60 7 C-58.35 7 -56.7 7 -55 7 C-55 9.64 -55 12.28 -55 15 C-54.34 15 -53.68 15 -53 15 C-53 15.66 -53 16.32 -53 17 C-50.03 17 -47.06 17 -44 17 C-44 16.34 -44 15.68 -44 15 C-37.375 13.75 -37.375 13.75 -34 16 C-30.72943296 16.28439713 -28.53600312 16.22780133 -25.5 14.9375 C-22.3272509 13.74771909 -20.25175288 14.2437784 -17 15 C-17 14.01 -17 13.02 -17 12 C-17.66 11.67 -18.32 11.34 -19 11 C-14.6822542 11.50797009 -10.96697886 12.19682779 -7 14 C-7 13.01 -7 12.02 -7 11 C-6.01 11 -5.02 11 -4 11 C-4 11.66 -4 12.32 -4 13 C-0.7 12.67 2.6 12.34 6 12 C6 11.01 6 10.02 6 9 C3.69 8.34 1.38 7.68 -1 7 C-0.67 4.69 -0.34 2.38 0 0 Z " fill="#FBBF06" transform="translate(140,129)"/>
<path d="M0 0 C6.93 0 13.86 0 21 0 C21.40497367 18.03257756 21.79265949 35.42691519 17 53 C16 54 16 54 13.49609375 54.09765625 C12.48675781 54.08605469 11.47742188 54.07445312 10.4375 54.0625 C9.42558594 54.05347656 8.41367187 54.04445312 7.37109375 54.03515625 C6.19740234 54.01775391 6.19740234 54.01775391 5 54 C4.34141694 51.5862165 3.69825094 49.16981327 3.0625 46.75 C2.88009766 46.08742187 2.69769531 45.42484375 2.50976562 44.7421875 C-0.25273226 34.09401382 -0.14287448 23.18092867 -0.0625 12.25 C-0.05798828 11.0640625 -0.05347656 9.878125 -0.04882812 8.65625 C-0.03719329 5.77081089 -0.01926453 2.88539826 0 0 Z " fill="#414041" transform="translate(345,14)"/>
<path d="M0 0 C2.875 1 2.875 1 5 2 C5 2.66 5 3.32 5 4 C5.66 4 6.32 4 7 4 C10.74616635 9.69417285 9.62752118 18.43238308 9 25 C7.44789545 31.66029673 2.58933249 36.31279637 -3 40 C-5.94526778 41.28769847 -8.8786338 42.24133461 -12 43 C-14.39763185 40.60236815 -14.34280586 39.66726502 -14.625 36.375 C-14.69976562 35.55773438 -14.77453125 34.74046875 -14.8515625 33.8984375 C-14.90054688 33.27195313 -14.94953125 32.64546875 -15 32 C-14.44570312 31.68546875 -13.89140625 31.3709375 -13.3203125 31.046875 C-12.59585938 30.61890625 -11.87140625 30.1909375 -11.125 29.75 C-10.04605469 29.12351562 -10.04605469 29.12351562 -8.9453125 28.484375 C-6.79125838 26.84071924 -6.00859415 25.48432665 -5 23 C-5.7425 22.9175 -6.485 22.835 -7.25 22.75 C-10.74600961 21.79654283 -11.91425032 20.97964239 -14 18 C-15.15528685 13.7953846 -15.48976212 10.29642913 -13.9375 6.1875 C-9.85603109 1.57938994 -6.24054531 -0.79666536 0 0 Z " fill="#C5162C" transform="translate(234,14)"/>
<path d="M0 0 C4.22038388 0.59233458 8.31019735 0.58678169 12.5625 0.5 C13.0575 1.985 13.0575 1.985 13.5625 3.5 C12.5725 3.83 11.5825 4.16 10.5625 4.5 C11.0575 4.95375 11.5525 5.4075 12.0625 5.875 C13.5625 7.5 13.5625 7.5 13.5625 9.5 C11.625 8.75 11.625 8.75 9.5625 7.5 C8.8125 5.375 8.8125 5.375 8.5625 3.5 C6.06212266 5.67424117 5.12621414 7.23045798 4.5625 10.5 C7.69599732 11.54449911 8.55218256 11.43423645 11.5625 10.5 C11.5625 11.16 11.5625 11.82 11.5625 12.5 C8.82344655 13.86952673 6.59162668 13.62621361 3.5625 13.5 C2.9025 13.17 2.2425 12.84 1.5625 12.5 C1.5625 11.84 1.5625 11.18 1.5625 10.5 C0.9025 10.5 0.2425 10.5 -0.4375 10.5 C-0.4375 11.82 -0.4375 13.14 -0.4375 14.5 C-1.7575 14.5 -3.0775 14.5 -4.4375 14.5 C-4.4375 13.84 -4.4375 13.18 -4.4375 12.5 C-5.4275 12.5 -6.4175 12.5 -7.4375 12.5 C-7.7675 13.82 -8.0975 15.14 -8.4375 16.5 C-11.10376359 16.69693992 -13.77006639 16.88274782 -16.4375 17.0625 C-17.18128906 17.11857422 -17.92507812 17.17464844 -18.69140625 17.23242188 C-23.76752118 17.56347285 -28.40761262 17.27163045 -33.4375 16.5 C-33.7675 14.19 -34.0975 11.88 -34.4375 9.5 C-35.4275 9.83 -36.4175 10.16 -37.4375 10.5 C-40.125 9.0625 -40.125 9.0625 -42.4375 7.5 C-41.4375 5.5 -41.4375 5.5 -40.4375 4.5 C-37.76691149 4.35884839 -35.11317762 4.45752893 -32.4375 4.5 C-32.1075 3.84 -31.7775 3.18 -31.4375 2.5 C-30.7775 2.5 -30.1175 2.5 -29.4375 2.5 C-29.1075 3.49 -28.7775 4.48 -28.4375 5.5 C-27.7775 5.83 -27.1175 6.16 -26.4375 6.5 C-26.4375 4.52 -26.4375 2.54 -26.4375 0.5 C-6.53810711 -0.9509974 -6.53810711 -0.9509974 0 0 Z M-12.4375 1.5 C-12.4375 1.83 -12.4375 2.16 -12.4375 2.5 C-9.7975 2.5 -7.1575 2.5 -4.4375 2.5 C-4.4375 2.17 -4.4375 1.84 -4.4375 1.5 C-7.0775 1.5 -9.7175 1.5 -12.4375 1.5 Z M-4.4375 2.5 C-4.7675 3.16 -5.0975 3.82 -5.4375 4.5 C-4.7775 4.5 -4.1175 4.5 -3.4375 4.5 C-3.7675 3.84 -4.0975 3.18 -4.4375 2.5 Z M1.5625 3.5 C1.5625 4.82 1.5625 6.14 1.5625 7.5 C2.2225 7.5 2.8825 7.5 3.5625 7.5 C3.5625 6.18 3.5625 4.86 3.5625 3.5 C2.9025 3.5 2.2425 3.5 1.5625 3.5 Z M-12.4375 5.5 C-11.4375 7.5 -11.4375 7.5 -11.4375 7.5 Z M-10.4375 7.5 C-9.4375 9.5 -9.4375 9.5 -9.4375 9.5 Z M-4.4375 10.5 C-4.4375 11.16 -4.4375 11.82 -4.4375 12.5 C-3.4475 12.17 -2.4575 11.84 -1.4375 11.5 C-2.4275 11.17 -3.4175 10.84 -4.4375 10.5 Z M-24.4375 11.5 C-24.1075 12.82 -23.7775 14.14 -23.4375 15.5 C-23.1075 14.84 -22.7775 14.18 -22.4375 13.5 C-23.0975 12.84 -23.7575 12.18 -24.4375 11.5 Z M-30.4375 12.5 C-30.7675 13.49 -31.0975 14.48 -31.4375 15.5 C-30.7775 15.5 -30.1175 15.5 -29.4375 15.5 C-29.7675 14.51 -30.0975 13.52 -30.4375 12.5 Z " fill="#F4C11C" transform="translate(184.4375,123.5)"/>
<path d="M0 0 C3.65385387 2.71914707 5.32704845 5.68056634 6.6875 10 C6.625 12.625 6.625 12.625 5.6875 15 C5.295625 16.03125 4.90375 17.0625 4.5 18.125 C2.23948266 21.7106482 0.68629807 22.64191764 -3.3125 24 C-9.6413969 24.70321077 -13.24563896 23.92940244 -18.3125 20 C-19.25 17.375 -19.25 17.375 -19.3125 14 C-19.38339844 13.1853125 -19.45429688 12.370625 -19.52734375 11.53125 C-19.68466345 8.92204514 -19.72014273 6.58321426 -19.3125 4 C-13.86179919 -1.8810193 -7.41603405 -2.23880273 0 0 Z " fill="#BC0B0B" transform="translate(363.3125,75)"/>
<path d="M0 0 C2.475 0.495 2.475 0.495 5 1 C5 1.66 5 2.32 5 3 C5.99 3 6.98 3 8 3 C8.268125 3.639375 8.53625 4.27875 8.8125 4.9375 C9.88667752 7.33131686 9.88667752 7.33131686 13 8 C14.60769874 10.33116317 15.09530596 11.42816426 14.625 14.25 C14.41875 14.8275 14.2125 15.405 14 16 C11.69 15.34 9.38 14.68 7 14 C6.67 14.99 6.34 15.98 6 17 C4.39125 16.938125 4.39125 16.938125 2.75 16.875 C-0.86893451 16.99563115 -1.95735066 17.42960034 -5 19 C-9.09859246 19.33457898 -10.51195905 19.32536063 -14 17 C-16.33199388 16.92094936 -18.66832622 16.91201231 -21 17 C-21 17.66 -21 18.32 -21 19 C-23.97 19 -26.94 19 -30 19 C-30 18.34 -30 17.68 -30 17 C-30.66 17 -31.32 17 -32 17 C-32.28571429 8.42857143 -32.28571429 8.42857143 -30 5 C-28.35 5 -26.7 5 -25 5 C-25 5.66 -25 6.32 -25 7 C-24.34 7 -23.68 7 -23 7 C-23 6.34 -23 5.68 -23 5 C-21.68 5 -20.36 5 -19 5 C-19.33 6.32 -19.66 7.64 -20 9 C-22.31 9.33 -24.62 9.66 -27 10 C-25.9354148 12.60943058 -25.9354148 12.60943058 -24 15 C-20.87364791 15.41746608 -20.87364791 15.41746608 -18 15 C-18 14.34 -18 13.68 -18 13 C-17.34 13 -16.68 13 -16 13 C-15.67 11.68 -15.34 10.36 -15 9 C-14.67 9.99 -14.34 10.98 -14 12 C-14 10.68 -14 9.36 -14 8 C-13.625 5.8125 -13.625 5.8125 -13 4 C-10.78704384 2.89352192 -9.45327301 2.80411632 -7 2.75 C-6.29875 2.72421875 -5.5975 2.6984375 -4.875 2.671875 C-4.25625 2.78015625 -3.6375 2.8884375 -3 3 C-2.01 4.485 -2.01 4.485 -1 6 C-0.67 4.02 -0.34 2.04 0 0 Z M2 4 C2.66 5.65 3.32 7.3 4 9 C4.33 7.68 4.66 6.36 5 5 C4.01 4.67 3.02 4.34 2 4 Z M-3 9 C-2 11 -2 11 -2 11 Z M9 10 C9 10.66 9 11.32 9 12 C10.32 12.33 11.64 12.66 13 13 C12.02149805 11.97895449 11.02019573 10.9793879 10 10 C9.67 10 9.34 10 9 10 Z M-14 13 C-13.34 13.66 -12.68 14.32 -12 15 C-12 14.34 -12 13.68 -12 13 C-12.66 13 -13.32 13 -14 13 Z " fill="#F5BF1B" transform="translate(117,127)"/>
<path d="M0 0 C0.74886475 0.00523682 1.49772949 0.01047363 2.26928711 0.01586914 C3.07817383 0.0190918 3.88706055 0.02231445 4.72045898 0.02563477 C5.5705957 0.03401367 6.42073242 0.04239258 7.29663086 0.05102539 C8.15063477 0.05553711 9.00463867 0.06004883 9.88452148 0.06469727 C12.00108749 0.07652166 14.11761771 0.0944577 16.23413086 0.11352539 C15.90413086 1.10352539 15.57413086 2.09352539 15.23413086 3.11352539 C14.55866211 3.10192383 13.88319336 3.09032227 13.18725586 3.07836914 C12.29522461 3.0693457 11.40319336 3.06032227 10.48413086 3.05102539 C9.60241211 3.03942383 8.72069336 3.02782227 7.81225586 3.01586914 C4.9645961 3.03524718 4.9645961 3.03524718 1.23413086 4.11352539 C0.90413086 30.18352539 0.57413086 56.25352539 0.23413086 83.11352539 C5.51413086 83.11352539 10.79413086 83.11352539 16.23413086 83.11352539 C16.2225293 81.25985352 16.21092773 79.40618164 16.19897461 77.49633789 C16.18959759 75.07706806 16.1804973 72.65779715 16.17163086 70.23852539 C16.16325195 69.01520508 16.15487305 67.79188477 16.14624023 66.53149414 C16.14301758 65.36489258 16.13979492 64.19829102 16.13647461 62.99633789 C16.12861938 61.37816162 16.12861938 61.37816162 16.12060547 59.72729492 C16.23413086 57.11352539 16.23413086 57.11352539 17.23413086 55.11352539 C17.89413086 55.11352539 18.55413086 55.11352539 19.23413086 55.11352539 C18.90413086 65.01352539 18.57413086 74.91352539 18.23413086 85.11352539 C11.30413086 85.11352539 4.37413086 85.11352539 -2.76586914 85.11352539 C-2.78841976 74.178557 -2.80678399 63.24360393 -2.81768131 52.30861759 C-2.82291024 47.23161521 -2.83000806 42.1546295 -2.84130859 37.07763672 C-2.85213713 32.18231987 -2.8581459 27.2870191 -2.86074638 22.39169121 C-2.86260069 20.51969588 -2.86622142 18.64770148 -2.8715992 16.77571297 C-2.87880919 14.1631184 -2.8798601 11.55059112 -2.87939453 8.93798828 C-2.88298981 8.15612152 -2.88658508 7.37425476 -2.89028931 6.56869507 C-2.87789752 0.18501622 -2.87789752 0.18501622 0 0 Z " fill="#C04855" transform="translate(32.765869140625,31.886474609375)"/>
<path d="M0 0 C3.63 0 7.26 0 11 0 C11 2.64 11 5.28 11 8 C12.65 8 14.3 8 16 8 C15.34 8.33 14.68 8.66 14 9 C14.0611499 9.98395752 14.0611499 9.98395752 14.12353516 10.98779297 C14.30153073 13.94966036 14.46345902 16.91219159 14.625 19.875 C14.68945312 20.90753906 14.75390625 21.94007813 14.8203125 23.00390625 C14.871875 23.99003906 14.9234375 24.97617188 14.9765625 25.9921875 C15.02893066 26.90339355 15.08129883 27.81459961 15.13525391 28.75341797 C15 31 15 31 13 33 C11.16792297 33.37890625 11.16792297 33.37890625 8.9152832 33.5625 C8.06871658 33.63597656 7.22214996 33.70945313 6.34992981 33.78515625 C4.96435127 33.89150391 4.96435127 33.89150391 3.55078125 34 C2.58714157 34.08121094 1.62350189 34.16242188 0.63066101 34.24609375 C-2.47475675 34.50589471 -5.58102476 34.75319803 -8.6875 35 C-10.69993912 35.16582745 -12.71230997 35.3324856 -14.72460938 35.5 C-18.76762321 35.83556057 -22.81092584 36.16726045 -26.85449219 36.49609375 C-33.06964235 37.00349348 -39.28325678 37.52755153 -45.49609375 38.0625 C-46.89513191 38.18141602 -46.89513191 38.18141602 -48.32243347 38.30273438 C-53.68915687 38.7676093 -59.02966174 39.33226407 -64.375 40 C-72.71199482 41.03641979 -81.07105 41.68560325 -89.44873047 42.30273438 C-94.36096332 42.67171383 -99.14115172 43.17695586 -104 44 C-105.95740193 44.06388388 -107.91670147 44.08638169 -109.875 44.0625 C-110.84179688 44.05347656 -111.80859375 44.04445312 -112.8046875 44.03515625 C-113.52914062 44.02355469 -114.25359375 44.01195312 -115 44 C-106.56210757 39.25453823 -95.25855805 39.55090562 -85.8125 38.875 C-84.70197266 38.78863281 -83.59144531 38.70226562 -82.44726562 38.61328125 C-76.27864378 38.15364414 -70.18522093 37.90856062 -64 38 C-64 37.34 -64 36.68 -64 36 C-62.92105469 35.9498877 -61.84210938 35.89977539 -60.73046875 35.84814453 C-56.69701094 35.65866428 -52.66413623 35.45855898 -48.63134766 35.25537109 C-46.89157835 35.16917358 -45.151667 35.085792 -43.41162109 35.00537109 C-40.89898009 34.88873847 -38.38703773 34.76171904 -35.875 34.6328125 C-35.10696045 34.59938751 -34.3389209 34.56596252 -33.54760742 34.53152466 C-29.14312857 34.29414928 -25.19000539 33.60222015 -20.93847656 32.44973755 C-17.78386594 31.71785001 -14.66616759 31.66665419 -11.4375 31.5859375 C-10.42236328 31.55688828 -10.42236328 31.55688828 -9.38671875 31.5272522 C-7.25793445 31.4682117 -5.1290938 31.42137917 -3 31.375 C-1.54294718 31.33675034 -0.08591529 31.29769473 1.37109375 31.2578125 C4.91386926 31.16257494 8.4568043 31.07827103 12 31 C11.7834375 29.25976562 11.7834375 29.25976562 11.5625 27.484375 C10.49362383 18.59612665 9.76997491 9.9709785 10 1 C6.7 1 3.4 1 0 1 C0 0.67 0 0.34 0 0 Z " fill="#F0CA4F" transform="translate(241,109)"/>
<path d="M0 0 C0.99 0.33 1.98 0.66 3 1 C2.6875 2.875 2.6875 2.875 2 5 C1.01 5.66 0.02 6.32 -1 7 C-0.01 7.33 0.98 7.66 2 8 C2.33 7.34 2.66 6.68 3 6 C3 6.99 3 7.98 3 9 C2.01 9 1.02 9 0 9 C-0.66 10.32 -1.32 11.64 -2 13 C-0.68 13 0.64 13 2 13 C2.33 12.34 2.66 11.68 3 11 C3.66 11 4.32 11 5 11 C5 11.66 5 12.32 5 13 C7.88214887 12.11785113 7.88214887 12.11785113 10 11 C10 10.01 10 9.02 10 8 C9.34 8 8.68 8 8 8 C7.67 8.99 7.34 9.98 7 11 C6.80508548 9.54263913 6.61930642 8.08405407 6.4375 6.625 C6.33308594 5.81289062 6.22867188 5.00078125 6.12109375 4.1640625 C6 2 6 2 7 0 C9.46800047 1.15173355 11.04783565 2.04783565 13 4 C13.33 3.01 13.66 2.02 14 1 C13.34 0.67 12.68 0.34 12 0 C14.38564077 0.57584432 16.66682784 1.22227595 19 2 C19 4.31 19 6.62 19 9 C19.66 9 20.32 9 21 9 C21 7.68 21 6.36 21 5 C21.66 5 22.32 5 23 5 C23 5.99 23 6.98 23 8 C25.475 8.495 25.475 8.495 28 9 C27.34 10.65 26.68 12.3 26 14 C20.555 13.505 20.555 13.505 15 13 C15 12.01 15 11.02 15 10 C14.01 10 13.02 10 12 10 C12.185625 10.639375 12.37125 11.27875 12.5625 11.9375 C12.706875 12.618125 12.85125 13.29875 13 14 C10.64072311 16.35927689 5.50090608 15.98835102 2.3125 16.0625 C-0.12582948 16.0625 -2.56209857 16.04414711 -5 16 C-5 13.03 -5 10.06 -5 7 C-4.34 7 -3.68 7 -3 7 C-3.33 6.34 -3.66 5.68 -4 5 C-4.99 5.495 -4.99 5.495 -6 6 C-6 4.35 -6 2.7 -6 1 C-3.525 1.495 -3.525 1.495 -1 2 C-0.67 1.34 -0.34 0.68 0 0 Z M9 4 C9 7 9 7 9 7 Z M10 6 C11 8 11 8 11 8 Z " fill="#F7C327" transform="translate(207,121)"/>
<path d="M0 0 C0.33 0.66 0.66 1.32 1 2 C6.94 1.67 12.88 1.34 19 1 C19 2.65 19 4.3 19 6 C18.34 6.66 17.68 7.32 17 8 C17.33 8.66 17.66 9.32 18 10 C17.34 10 16.68 10 16 10 C16.99 10.99 17.98 11.98 19 13 C19.33 12.34 19.66 11.68 20 11 C19.95875 11.78375 19.9175 12.5675 19.875 13.375 C19.71271266 16.16116119 19.71271266 16.16116119 22 18 C22 18.66 22 19.32 22 20 C22.99 20.66 23.98 21.32 25 22 C23 24 23 24 20.125 24.5 C17 24 17 24 14.625 21 C13.820625 19.515 13.820625 19.515 13 18 C12.34 18.33 11.68 18.66 11 19 C11 17.02 11 15.04 11 13 C10.01 13 9.02 13 8 13 C8 10 8 10 10 8 C9.34 7.67 8.68 7.34 8 7 C8 6.34 8 5.68 8 5 C5.36 5 2.72 5 0 5 C0 5.66 0 6.32 0 7 C-7.42857143 7.28571429 -7.42857143 7.28571429 -11 5 C-5.70769231 0.93846154 -5.70769231 0.93846154 -2.125 1.25 C-1.073125 1.62125 -1.073125 1.62125 0 2 C0 1.34 0 0.68 0 0 Z M18 20 C19 22 19 22 19 22 Z " fill="#FCBE0A" transform="translate(220,109)"/>
<path d="M0 0 C0.61875 0.28875 1.2375 0.5775 1.875 0.875 C7.44286682 2.87943205 13.08344173 4 19 4 C19.33 2.68 19.66 1.36 20 0 C20.66 0.33 21.32 0.66 22 1 C22.144375 1.78375 22.28875 2.5675 22.4375 3.375 C23.06414386 6.29933803 23.85609802 7.04252428 26 9 C26 9.66 26 10.32 26 11 C23.36 10.67 20.72 10.34 18 10 C18 10.66 18 11.32 18 12 C16.5625 13.6875 16.5625 13.6875 14 15 C7.57653891 15.11786167 2.93078564 13.84302266 -1.75 9.375 C-2.4925 8.59125 -3.235 7.8075 -4 7 C-2.79618552 4.50638429 -1.54571278 2.31856917 0 0 Z M20 6 C20.33 6.99 20.66 7.98 21 9 C21 8.01 21 7.02 21 6 C20.67 6 20.34 6 20 6 Z " fill="#C61128" transform="translate(174,62)"/>
<path d="M0 0 C3.92377494 -0.06883816 7.55004142 -0.06544852 11.4375 0.5 C15.65788388 1.09233458 19.74769735 1.08678169 24 1 C24.33 1.99 24.66 2.98 25 4 C24.01 4.33 23.02 4.66 22 5 C22.495 5.45375 22.99 5.9075 23.5 6.375 C25 8 25 8 25 10 C23.0625 9.25 23.0625 9.25 21 8 C20.25 5.875 20.25 5.875 20 4 C17.49962266 6.17424117 16.56371414 7.73045798 16 11 C19.13349732 12.04449911 19.98968256 11.93423645 23 11 C23 11.66 23 12.32 23 13 C20.26094655 14.36952673 18.02912668 14.12621361 15 14 C14.34 13.67 13.68 13.34 13 13 C13 12.34 13 11.68 13 11 C12.34 11 11.68 11 11 11 C11 12.32 11 13.64 11 15 C9.68 15 8.36 15 7 15 C7 14.34 7 13.68 7 13 C7.66 12.67 8.32 12.34 9 12 C6.69 11.34 4.38 10.68 2 10 C2 10.99 2 11.98 2 13 C1.34 13 0.68 13 0 13 C-0.144375 11.906875 -0.28875 10.81375 -0.4375 9.6875 C-0.88288104 6.06877013 -0.88288104 6.06877013 -2 3 C-1.34 2.67 -0.68 2.34 0 2 C0 1.34 0 0.68 0 0 Z M7 3 C6.67 3.66 6.34 4.32 6 5 C6.66 5 7.32 5 8 5 C7.67 4.34 7.34 3.68 7 3 Z M13 4 C13 5.32 13 6.64 13 8 C13.66 8 14.32 8 15 8 C15 6.68 15 5.36 15 4 C14.34 4 13.68 4 13 4 Z " fill="#F5C740" transform="translate(173,123)"/>
<path d="M0 0 C0 0.66 0 1.32 0 2 C-0.66 2 -1.32 2 -2 2 C-2 4.64 -2 7.28 -2 10 C-0.14375 10.1546875 -0.14375 10.1546875 1.75 10.3125 C5.27432078 10.75537925 7.46364895 11.3621949 10 14 C11.28317892 17.84953676 11.06643637 20.94738135 11 25 C8.78600697 21.20458337 7.99019802 17.24370579 7 13 C5.22925083 12.97294271 3.45838289 12.95357805 1.6875 12.9375 C0.70136719 12.92589844 -0.28476562 12.91429687 -1.30078125 12.90234375 C-4.09963849 12.87670138 -4.09963849 12.87670138 -7 14 C-7 14.66 -7 15.32 -7 16 C-7.66 16 -8.32 16 -9 16 C-9.93231561 18.79694682 -10.11751342 20.45743431 -10.09765625 23.34375 C-10.09443359 24.17777344 -10.09121094 25.01179688 -10.08789062 25.87109375 C-10.07951172 26.73863281 -10.07113281 27.60617188 -10.0625 28.5 C-10.05573242 29.80130859 -10.05573242 29.80130859 -10.04882812 31.12890625 C-10.04011144 32.74024825 -10.0293422 34.35158137 -10.01586914 35.96289062 C-10.00278973 37.64188447 -10 39.32095521 -10 41 C-12.60088622 38.39911378 -12.29962225 37.17862887 -12.4140625 33.5546875 C-12.45273437 32.47832031 -12.49140625 31.40195313 -12.53125 30.29296875 C-12.5621875 29.16503906 -12.593125 28.03710938 -12.625 26.875 C-12.68300781 25.17150391 -12.68300781 25.17150391 -12.7421875 23.43359375 C-12.83667601 20.62256044 -12.92223541 17.81153767 -13 15 C-11.68 15 -10.36 15 -9 15 C-9.33 13.02 -9.66 11.04 -10 9 C-10.66 9 -11.32 9 -12 9 C-12.3125 6.25 -12.3125 6.25 -12 3 C-8.22348067 -1.4631592 -5.48700159 -1.2910592 0 0 Z " fill="#BD2336" transform="translate(62,35)"/>
<path d="M0 0 C2.97 0.33 5.94 0.66 9 1 C9 1.66 9 2.32 9 3 C10.32 3.66 11.64 4.32 13 5 C11.68 5.33 10.36 5.66 9 6 C9.99 7.485 9.99 7.485 11 9 C11.33 9.66 11.66 10.32 12 11 C11.67 11.66 11.34 12.32 11 13 C10.34 13 9.68 13 9 13 C9 14.32 9 15.64 9 17 C8.34 17 7.68 17 7 17 C6.505 12.05 6.505 12.05 6 7 C0.06 7 -5.88 7 -12 7 C-11.34 5.35 -10.68 3.7 -10 2 C-6.37 2.33 -2.74 2.66 1 3 C0.67 2.01 0.34 1.02 0 0 Z " fill="#FBC003" transform="translate(219,113)"/>
<path d="M0 0 C-0.33 3.96 -0.66 7.92 -1 12 C-3.97 12 -6.94 12 -10 12 C-10 11.01 -10 10.02 -10 9 C-11.32 9 -12.64 9 -14 9 C-13.66032174 5.82966958 -13.00130809 5.00117393 -10.5625 2.8125 C-6.21995874 -0.25905357 -6.03815861 0 0 0 Z " fill="#C4122A" transform="translate(216,27)"/>
<path d="M0 0 C0.33 0 0.66 0 1 0 C1 1.65 1 3.3 1 5 C1.66 5 2.32 5 3 5 C3 9.95 3 14.9 3 20 C5.62538284 19.85946128 8.25017427 19.71281053 10.875 19.5625 C11.62136719 19.52318359 12.36773437 19.48386719 13.13671875 19.44335938 C17.19986864 19.28426376 17.19986864 19.28426376 21 18 C23.03232634 17.91472372 25.06747006 17.89283865 27.1015625 17.90234375 C28.31328125 17.90556641 29.525 17.90878906 30.7734375 17.91210938 C32.04445312 17.92048828 33.31546875 17.92886719 34.625 17.9375 C35.90375 17.94201172 37.1825 17.94652344 38.5 17.95117188 C41.66671292 17.96298797 44.83333356 17.97946185 48 18 C48 18.33 48 18.66 48 19 C46.92069214 19.07516846 46.92069214 19.07516846 45.81958008 19.15185547 C28.56252278 20.33430998 28.56252278 20.33430998 11.44140625 22.6875 C8.03579703 23.12341798 5.32109392 22.83027348 2 22 C0.38219843 20.38219843 0.77727853 18.54364482 0.68359375 16.30859375 C0.64169922 15.36435547 0.59980469 14.42011719 0.55664062 13.44726562 C0.51732422 12.45404297 0.47800781 11.46082031 0.4375 10.4375 C0.39431641 9.44041016 0.35113281 8.44332031 0.30664062 7.41601562 C0.20019702 4.9441585 0.09818072 2.4721969 0 0 Z " fill="#F1D269" transform="translate(78,135)"/>
<path d="M0 0 C-0.99 0.495 -0.99 0.495 -2 1 C-1.01 1.99 -0.02 2.98 1 4 C1.33 3.34 1.66 2.68 2 2 C1.95875 2.78375 1.9175 3.5675 1.875 4.375 C1.71271266 7.16116119 1.71271266 7.16116119 4 9 C4 9.66 4 10.32 4 11 C4.99 11.66 5.98 12.32 7 13 C5 15 5 15 2.125 15.5 C-1 15 -1 15 -3.375 12 C-3.91125 11.01 -4.4475 10.02 -5 9 C-5.99 9.495 -5.99 9.495 -7 10 C-7 8.02 -7 6.04 -7 4 C-7.99 4 -8.98 4 -10 4 C-10 3.01 -10 2.02 -10 1 C-6.78548731 -0.60725635 -3.56387464 -0.05748185 0 0 Z M0 11 C1 13 1 13 1 13 Z " fill="#F1D137" transform="translate(238,118)"/>
<path d="M0 0 C1.78409802 3.06246747 2.22880021 5.22079273 2.125 8.75 C2.10695312 9.54921875 2.08890625 10.3484375 2.0703125 11.171875 C2.03550781 12.07679688 2.03550781 12.07679688 2 13 C1.67 12.34 1.34 11.68 1 11 C0.01 11 -0.98 11 -2 11 C-2.33 12.32 -2.66 13.64 -3 15 C-5.64 15 -8.28 15 -11 15 C-11 14.67 -11 14.34 -11 14 C-7.535 13.505 -7.535 13.505 -4 13 C-4 12.34 -4 11.68 -4 11 C-4.99 11 -5.98 11 -7 11 C-7.33 11.66 -7.66 12.32 -8 13 C-8.66 13 -9.32 13 -10 13 C-10.625 10.1875 -10.625 10.1875 -11 7 C-10.34 6.01 -9.68 5.02 -9 4 C-8.34 4 -7.68 4 -7 4 C-7 4.99 -7 5.98 -7 7 C-6.34 7.33 -5.68 7.66 -5 8 C-4.01 8.66 -3.02 9.32 -2 10 C-2 9.01 -2 8.02 -2 7 C-3.32 6.34 -4.64 5.68 -6 5 C-4.02 4.34 -2.04 3.68 0 3 C0 2.01 0 1.02 0 0 Z " fill="#EEBE24" transform="translate(200,123)"/>
<path d="M0 0 C1.65 0.66 3.3 1.32 5 2 C5 2.99 5 3.98 5 5 C5.01127239 6.42448277 5.02304284 7.84896163 5.03515625 9.2734375 C5.04445597 10.97395733 5.05356332 12.67447822 5.0625 14.375 C5.07087891 15.22578125 5.07925781 16.0765625 5.08789062 16.953125 C5.10405107 21.10312604 5.05752986 24.95307472 4 29 C3.071875 29.12375 3.071875 29.12375 2.125 29.25 C-0.18581338 29.80115872 -0.18581338 29.80115872 -1.1328125 32.046875 C-1.56207031 33.01367188 -1.56207031 33.01367188 -2 34 C-7.44693314 34.09688221 -12.63904667 34.12862175 -18 33 C-16.515 32.505 -16.515 32.505 -15 32 C-15.33 30.68 -15.66 29.36 -16 28 C-15.13375 28.495 -14.2675 28.99 -13.375 29.5 C-9.77899092 31.09822626 -7.87117359 31.57655777 -4 31 C-0.51327289 29.01890505 0.75628645 27.58027036 2.3125 23.875 C3.84831563 15.21858463 2.95175963 8.25789896 0 0 Z " fill="#C34F5E" transform="translate(132,51)"/>
<path d="M0 0 C0.99 0 1.98 0 3 0 C2.67 0.99 2.34 1.98 2 3 C1.34 3 0.68 3 0 3 C0 5.31 0 7.62 0 10 C2.64 10.33 5.28 10.66 8 11 C7.34 12.65 6.68 14.3 6 16 C3.36 16 0.72 16 -2 16 C-2.33 14.68 -2.66 13.36 -3 12 C-3.99 12 -4.98 12 -6 12 C-6.25 5.375 -6.25 5.375 -4 2 C-2.68 2 -1.36 2 0 2 C0 1.34 0 0.68 0 0 Z M-3 5 C-3 6.65 -3 8.3 -3 10 C-2.67 10 -2.34 10 -2 10 C-2 8.35 -2 6.7 -2 5 C-2.33 5 -2.66 5 -3 5 Z M-5 7 C-4 9 -4 9 -4 9 Z " fill="#F3BE45" transform="translate(140,126)"/>
<path d="M0 0 C1.32 0 2.64 0 4 0 C4.268125 0.639375 4.53625 1.27875 4.8125 1.9375 C5.88667752 4.33131686 5.88667752 4.33131686 9 5 C10.60769874 7.33116317 11.09530596 8.42816426 10.625 11.25 C10.41875 11.8275 10.2125 12.405 10 13 C8.9275 12.67 7.855 12.34 6.75 12 C3.00268399 10.8282249 3.00268399 10.8282249 -1 11 C-3.4294516 7.3558226 -3.16179575 5.28758728 -3 1 C-2.01 1.495 -2.01 1.495 -1 2 C-0.67 2.99 -0.34 3.98 0 5 C0 3.35 0 1.7 0 0 Z M5 7 C5 7.66 5 8.32 5 9 C6.32 9.33 7.64 9.66 9 10 C8.02149805 8.97895449 7.02019573 7.9793879 6 7 C5.67 7 5.34 7 5 7 Z " fill="#F7CD45" transform="translate(121,130)"/>
<path d="M0 0 C0 0.33 0 0.66 0 1 C-1.08941895 1.08564209 -2.17883789 1.17128418 -3.30126953 1.25952148 C-7.36056203 1.57932684 -11.41957562 1.90256059 -15.47851562 2.22680664 C-17.23202262 2.3664078 -18.98560294 2.50509125 -20.73925781 2.64282227 C-23.26647673 2.84147143 -25.79340963 3.04346873 -28.3203125 3.24609375 C-29.48785568 3.33678383 -29.48785568 3.33678383 -30.6789856 3.42930603 C-34.83493538 3.7660572 -38.88818526 4.28635416 -43 5 C-44.95740193 5.06388388 -46.91670147 5.08638169 -48.875 5.0625 C-49.84179688 5.05347656 -50.80859375 5.04445312 -51.8046875 5.03515625 C-52.52914062 5.02355469 -53.25359375 5.01195312 -54 5 C-39.41217327 -3.14600605 -16.20400281 -0.14563885 0 0 Z " fill="#F2CF61" transform="translate(180,148)"/>
<path d="M0 0 C3.63 0 7.26 0 11 0 C11 2.64 11 5.28 11 8 C12.65 8 14.3 8 16 8 C15.01 8.495 15.01 8.495 14 9 C14.05329468 9.99181274 14.05329468 9.99181274 14.10766602 11.00366211 C14.26466247 13.98135288 14.41368634 16.95938957 14.5625 19.9375 C14.61857422 20.97841797 14.67464844 22.01933594 14.73242188 23.09179688 C14.78076172 24.08115234 14.82910156 25.07050781 14.87890625 26.08984375 C14.9260376 27.00628662 14.97316895 27.92272949 15.02172852 28.86694336 C15 31 15 31 14 32 C11.32941149 32.14115161 8.67567762 32.04247107 6 32 C6 31.67 6 31.34 6 31 C7.98 31 9.96 31 12 31 C11.855625 29.83984375 11.71125 28.6796875 11.5625 27.484375 C10.49362383 18.59612665 9.76997491 9.9709785 10 1 C6.7 1 3.4 1 0 1 C0 0.67 0 0.34 0 0 Z " fill="#DBB749" transform="translate(241,109)"/>
<path d="M0 0 C2.46800047 1.15173355 4.04783565 2.04783565 6 4 C6.33 3.01 6.66 2.02 7 1 C6.34 0.67 5.68 0.34 5 0 C7.38564077 0.57584432 9.66682784 1.22227595 12 2 C12 4.64 12 7.28 12 10 C9.03 10 6.06 10 3 10 C3 9.34 3 8.68 3 8 C2.34 8 1.68 8 1 8 C0.67 8.99 0.34 9.98 0 11 C-0.19491452 9.54263913 -0.38069358 8.08405407 -0.5625 6.625 C-0.66691406 5.81289062 -0.77132812 5.00078125 -0.87890625 4.1640625 C-1 2 -1 2 0 0 Z M2 4 C2 7 2 7 2 7 Z M3 6 C4 8 4 8 4 8 Z " fill="#F8D45B" transform="translate(214,121)"/>
<path d="M0 0 C4.84840403 3.9248985 6.27500854 10.05507004 7 16 C7.66 15.67 8.32 15.34 9 15 C8.67 21.6 8.34 28.2 8 35 C5.51955685 31.27933528 5.55618827 28.13459526 5.375 23.8125 C5.33632812 23.06291016 5.29765625 22.31332031 5.2578125 21.54101562 C5.16371784 19.69440801 5.08077681 17.8472381 5 16 C4.34 16 3.68 16 3 16 C3 13.36 3 10.72 3 8 C2.34 7.67 1.68 7.34 1 7 C0.59270772 4.67843403 0.25561323 2.3431213 0 0 Z " fill="#CB5766" transform="translate(86,39)"/>
<path d="M0 0 C2.875 1 2.875 1 5 2 C5 2.66 5 3.32 5 4 C1.37 3.34 -2.26 2.68 -6 2 C-5.67 3.98 -5.34 5.96 -5 8 C-5.969375 7.979375 -6.93875 7.95875 -7.9375 7.9375 C-10.87465895 7.64381501 -10.87465895 7.64381501 -12 9 C-12.04320247 11.33293334 -12.04022391 13.6670134 -12 16 C-12 16.99 -12 17.98 -12 19 C-12.66 18.67 -13.32 18.34 -14 18 C-15.12549663 13.90420775 -15.44339553 10.17369405 -13.9375 6.1875 C-9.85603109 1.57938994 -6.24054531 -0.79666536 0 0 Z " fill="#C24353" transform="translate(234,14)"/>
<path d="M0 0 C1.37478516 0.01740234 1.37478516 0.01740234 2.77734375 0.03515625 C3.69644531 0.04417969 4.61554688 0.05320312 5.5625 0.0625 C6.27277344 0.07410156 6.98304688 0.08570312 7.71484375 0.09765625 C8.33984375 3.47265625 8.33984375 3.47265625 8.71484375 7.09765625 C8.05484375 7.75765625 7.39484375 8.41765625 6.71484375 9.09765625 C6.71484375 9.75765625 6.71484375 10.41765625 6.71484375 11.09765625 C7.37484375 11.09765625 8.03484375 11.09765625 8.71484375 11.09765625 C9.04484375 10.10765625 9.37484375 9.11765625 9.71484375 8.09765625 C9.71484375 9.41765625 9.71484375 10.73765625 9.71484375 12.09765625 C8.06484375 12.09765625 6.41484375 12.09765625 4.71484375 12.09765625 C4.38484375 9.78765625 4.05484375 7.47765625 3.71484375 5.09765625 C2.72484375 5.42765625 1.73484375 5.75765625 0.71484375 6.09765625 C-1.97265625 4.66015625 -1.97265625 4.66015625 -4.28515625 3.09765625 C-2.79607328 0.11949031 -2.79607328 0.11949031 0 0 Z " fill="#F4C934" transform="translate(146.28515625,127.90234375)"/>
<path d="M0 0 C2.55377345 2.55377345 2.30944517 4.32429616 2.38012695 7.81542969 C2.3593699 17.16598966 1.79948191 22.65773496 -4.625 30 C-7 32 -7 32 -9 32 C-8.34 30.35 -7.68 28.7 -7 27 C-6.01 27 -5.02 27 -4 27 C-3.83081732 25.41693353 -3.66476064 23.83353281 -3.5 22.25 C-3.4071875 21.36828125 -3.314375 20.4865625 -3.21875 19.578125 C-2.94363687 16.76695165 -2.94363687 16.76695165 -3 13 C-2.01 13 -1.02 13 0 13 C0 8.71 0 4.42 0 0 Z " fill="#BA3748" transform="translate(241,20)"/>
<path d="M0 0 C-0.639375 0.103125 -1.27875 0.20625 -1.9375 0.3125 C-2.618125 0.539375 -3.29875 0.76625 -4 1 C-4.33 1.99 -4.66 2.98 -5 4 C-7.72383473 7.21023379 -9.94523388 8.87574816 -14 10 C-17.30349914 9.95459996 -20.53878406 9.54977746 -23.8125 9.125 C-24.69615234 9.02058594 -25.57980469 8.91617188 -26.49023438 8.80859375 C-28.66178742 8.55035501 -30.8312317 8.2805182 -33 8 C-29.7851272 5.85675147 -28.94418135 5.74940063 -25.25 5.8125 C-24.36441406 5.82152344 -23.47882813 5.83054687 -22.56640625 5.83984375 C-20 6 -20 6 -16.1875 6.875 C-14.6096875 6.936875 -14.6096875 6.936875 -13 7 C-10.23979568 4.23776511 -10.23979568 4.23776511 -8 1 C-5.00044011 -1.09060235 -3.43121422 -1.22543365 0 0 Z " fill="#BB4C5D" transform="translate(210,28)"/>
<path d="M0 0 C0.99 0.33 1.98 0.66 3 1 C2.6875 2.875 2.6875 2.875 2 5 C1.01 5.66 0.02 6.32 -1 7 C-0.01 7.33 0.98 7.66 2 8 C2.33 7.34 2.66 6.68 3 6 C3 6.99 3 7.98 3 9 C2.01 9 1.02 9 0 9 C-0.66 10.32 -1.32 11.64 -2 13 C-1.01 13 -0.02 13 1 13 C1 13.66 1 14.32 1 15 C-0.98 15 -2.96 15 -5 15 C-5 12.36 -5 9.72 -5 7 C-4.34 7 -3.68 7 -3 7 C-3.33 6.34 -3.66 5.68 -4 5 C-4.99 5.495 -4.99 5.495 -6 6 C-6 4.35 -6 2.7 -6 1 C-3.525 1.495 -3.525 1.495 -1 2 C-0.67 1.34 -0.34 0.68 0 0 Z " fill="#F8D64B" transform="translate(207,121)"/>
<path d="M0 0 C-0.9590625 0.4640625 -0.9590625 0.4640625 -1.9375 0.9375 C-3.93610821 1.8345163 -3.93610821 1.8345163 -5 3 C-7.34046525 3.24684594 -9.6522321 3.42855401 -12 3.5625 C-12.70318359 3.6049585 -13.40636719 3.64741699 -14.13085938 3.69116211 C-22.0860283 4.12736235 -30.03608397 4.08870699 -38 4 C-38 3.67 -38 3.34 -38 3 C-35.03 3 -32.06 3 -29 3 C-29 2.34 -29 1.68 -29 1 C-25.29176238 0.83115799 -21.58339644 0.66531406 -17.875 0.5 C-16.82828125 0.45230469 -15.7815625 0.40460938 -14.703125 0.35546875 C-9.79846413 0.13817365 -4.91101213 -0.06797249 0 0 Z " fill="#F1C43D" transform="translate(206,144)"/>
<path d="M0 0 C0.96164063 0.15597656 1.92328125 0.31195313 2.9140625 0.47265625 C8.18332644 1.22635438 13.48248781 1.34186048 18.796875 1.51757812 C24.38476224 1.75718818 29.58287531 2.61205446 35 4 C35 4.33 35 4.66 35 5 C28.40514028 5.12819382 21.83544262 4.96335971 15.25 4.625 C14.54174072 4.59414307 13.83348145 4.56328613 13.10375977 4.53149414 C8.46282328 4.27049912 4.42671919 3.42535723 0 2 C0 1.34 0 0.68 0 0 Z " fill="#C44C5B" transform="translate(171,80)"/>
<path d="M0 0 C1.36515496 0.95610131 2.70394996 1.95212975 4 3 C-0.01567975 3.29120455 -4.03178186 3.57565676 -8.04833984 3.85449219 C-10.06762172 3.99597961 -12.08655263 4.14244838 -14.10546875 4.2890625 C-22.76417859 4.8862149 -31.32289259 5.12180771 -40 5 C-40 4.67 -40 4.34 -40 4 C-39.01080566 3.91435791 -38.02161133 3.82871582 -37.00244141 3.74047852 C-33.33817465 3.4221544 -29.6743961 3.09848878 -26.01074219 2.77319336 C-24.42395663 2.6330587 -22.83704181 2.49437985 -21.25 2.35717773 C-18.97099965 2.15990177 -16.69251294 1.957423 -14.4140625 1.75390625 C-13.34679428 1.66321617 -13.34679428 1.66321617 -12.25796509 1.57069397 C-7.91284111 1.17608922 -4.35821076 -0.41506769 0 0 Z " fill="#F0CE66" transform="translate(164,115)"/>
<path d="M0 0 C3.3 0.33 6.6 0.66 10 1 C10 1.66 10 2.32 10 3 C1.17773464 6.92100683 -7.54165757 6.2754857 -17 6 C-13.21175443 3.79592985 -10.490581 3.89092707 -6.21875 4.125 C-3.69546462 3.98284308 -2.16636013 3.26042771 0 2 C0 1.34 0 0.68 0 0 Z " fill="#BB3849" transform="translate(192,72)"/>
<path d="M0 0 C0.22174933 1.45635371 0.42698698 2.91522956 0.625 4.375 C0.74101562 5.18710938 0.85703125 5.99921875 0.9765625 6.8359375 C0.98429688 7.55007812 0.99203125 8.26421875 1 9 C0.34 9.66 -0.32 10.32 -1 11 C-0.34 11.33 0.32 11.66 1 12 C0.67 12.99 0.34 13.98 0 15 C0 14.34 0 13.68 0 13 C-1.32 12.67 -2.64 12.34 -4 12 C-3.67 10.68 -3.34 9.36 -3 8 C-3.66 8 -4.32 8 -5 8 C-5 6.35 -5 4.7 -5 3 C-5.66 3 -6.32 3 -7 3 C-7 2.34 -7 1.68 -7 1 C-4.53721199 -0.231394 -2.7204945 -0.07159196 0 0 Z " fill="#F5C125" transform="translate(245,117)"/>
<path d="M0 0 C2.97 0.33 5.94 0.66 9 1 C8.34 1.66 7.68 2.32 7 3 C7.32041397 5.60280568 7.32041397 5.60280568 8 8 C6.68 8 5.36 8 4 8 C3.67 9.32 3.34 10.64 3 12 C2.67 11.67 2.34 11.34 2 11 C1.34 11.66 0.68 12.32 0 13 C-0.28571429 5.57142857 -0.28571429 5.57142857 2 2 C1.34 2 0.68 2 0 2 C0 1.34 0 0.68 0 0 Z " fill="#F9C63A" transform="translate(159,126)"/>
<path d="M0 0 C4.35763296 0.5028038 6.91905734 3.05301137 10 6 C12.42825948 10.08389094 12.48592501 14.36502301 12 19 C11 22 11 22 10 24 C9.16992639 21.40601996 9.01041458 19.44802727 9.0625 16.6875 C8.99513227 12.71280392 8.45088048 9.69974522 7 6 C5.01432266 4.50256112 5.01432266 4.50256112 3 4 C3 3.34 3 2.68 3 2 C2.01 2 1.02 2 0 2 C0 1.34 0 0.68 0 0 Z " fill="#B63C4F" transform="translate(206,85)"/>
<path d="M0 0 C-0.61277612 2.96175123 -1.25372522 4.38058783 -3 7 C-3 6.34 -3 5.68 -3 5 C-3.598125 5.495 -4.19625 5.99 -4.8125 6.5 C-7 8 -7 8 -10 8 C-10 8.99 -10 9.98 -10 11 C-10.99 11.495 -10.99 11.495 -12 12 C-12.33 12.99 -12.66 13.98 -13 15 C-13.99 15.495 -13.99 15.495 -15 16 C-15.66 16.99 -16.32 17.98 -17 19 C-16.47731534 16.23723823 -15.89130413 13.6739124 -15 11 C-14.34 11 -13.68 11 -13 11 C-12.7421875 10.40574219 -12.484375 9.81148437 -12.21875 9.19921875 C-10.90163023 6.822493 -9.58656066 5.53214427 -7.5 3.8125 C-6.8915625 3.30332031 -6.283125 2.79414062 -5.65625 2.26953125 C-3.66399714 0.74245064 -2.53832112 0 0 0 Z " fill="#BE3A4B" transform="translate(112,35)"/>
<path d="M0 0 C0.99386719 0.23396484 0.99386719 0.23396484 2.0078125 0.47265625 C6.29426986 1.22810239 10.60006997 1.34934109 14.94140625 1.51757812 C19.58038271 1.75173598 23.57573138 2.57337552 28 4 C28 4.33 28 4.66 28 5 C7.62032086 5.44518717 7.62032086 5.44518717 0 1 C0 0.67 0 0.34 0 0 Z " fill="#C62F14" transform="translate(164,115)"/>
<path d="M0 0 C1.53445094 3.06890187 0.54984289 5.70094266 0 9 C-1.65614657 9.38218767 -3.32457024 9.71395102 -5 10 C-7.04698414 7.95301586 -6.70045693 3.69588759 -7 1 C-3.535 0.505 -3.535 0.505 0 0 Z " fill="#EDC327" transform="translate(112,133)"/>
<path d="M0 0 C0.66 0.66 1.32 1.32 2 2 C1.65575847 6.13089837 0.19778767 9.51385404 -2 13 C-6.70555267 16.28294372 -10.4597231 16.45412106 -16 16 C-16.99 15.34 -17.98 14.68 -19 14 C-18.14535156 13.95101562 -17.29070312 13.90203125 -16.41015625 13.8515625 C-15.30542969 13.77679688 -14.20070313 13.70203125 -13.0625 13.625 C-11.40927734 13.52058594 -11.40927734 13.52058594 -9.72265625 13.4140625 C-8.37494141 13.20910156 -8.37494141 13.20910156 -7 13 C-6.67 12.34 -6.34 11.68 -6 11 C-5.01 11 -4.02 11 -3 11 C-3 10.01 -3 9.02 -3 8 C-2.34 8 -1.68 8 -1 8 C-0.67 5.36 -0.34 2.72 0 0 Z " fill="#B5494B" transform="translate(368,83)"/>
<path d="M0 0 C-0.99 0.33 -1.98 0.66 -3 1 C-2.84402344 1.60328125 -2.68804687 2.2065625 -2.52734375 2.828125 C-2.33269531 3.62734375 -2.13804687 4.4265625 -1.9375 5.25 C-1.74027344 6.03890625 -1.54304687 6.8278125 -1.33984375 7.640625 C-0.98502733 10.10394822 -1.23122456 11.65604132 -2 14 C-2.99 12.35 -3.98 10.7 -5 9 C-5.99 9.495 -5.99 9.495 -7 10 C-7 8.02 -7 6.04 -7 4 C-7.99 4 -8.98 4 -10 4 C-10 3.01 -10 2.02 -10 1 C-6.78548731 -0.60725635 -3.56387464 -0.05748185 0 0 Z " fill="#F6CA38" transform="translate(238,118)"/>
<path d="M0 0 C2 0 4 0 6 0 C5.49396008 2.16874252 5.00016187 3.99967627 4 6 C4.99 6 5.98 6 7 6 C7 6.66 7 7.32 7 8 C7.66 8 8.32 8 9 8 C8.67 9.32 8.34 10.64 8 12 C6.35 12.33 4.7 12.66 3 13 C3.66 12.01 4.32 11.02 5 10 C4.0409375 8.9171875 4.0409375 8.9171875 3.0625 7.8125 C1.01326465 5.01808816 0.38667054 3.38336726 0 0 Z " fill="#C03445" transform="translate(157,82)"/>
<path d="M0 0 C0.33 0 0.66 0 1 0 C1 1.65 1 3.3 1 5 C1.66 5 2.32 5 3 5 C3 9.95 3 14.9 3 20 C5.97 20 8.94 20 12 20 C12 20.33 12 20.66 12 21 C8.37 21 4.74 21 1 21 C0.67 14.07 0.34 7.14 0 0 Z " fill="#F0C84D" transform="translate(78,135)"/>
<path d="M0 0 C1.22589844 0.01353516 1.22589844 0.01353516 2.4765625 0.02734375 C3.41628906 0.04474609 3.41628906 0.04474609 4.375 0.0625 C4.705 1.0525 5.035 2.0425 5.375 3.0625 C4.385 3.3925 3.395 3.7225 2.375 4.0625 C2.87 4.51625 3.365 4.97 3.875 5.4375 C5.375 7.0625 5.375 7.0625 5.375 9.0625 C3.4375 8.3125 3.4375 8.3125 1.375 7.0625 C0.625 4.9375 0.625 4.9375 0.375 3.0625 C-1.6495738 4.99504772 -3.04605792 6.69408688 -4.625 9.0625 C-5.285 6.4225 -5.945 3.7825 -6.625 1.0625 C-4.21954362 -0.14022819 -2.67503047 -0.03821472 0 0 Z " fill="#F9D765" transform="translate(192.625,123.9375)"/>
<path d="M0 0 C0.66 0.66 1.32 1.32 2 2 C1.86328125 4.05859375 1.86328125 4.05859375 1.3125 6.4375 C1.14363281 7.21996094 0.97476563 8.00242187 0.80078125 8.80859375 C-0.09674584 11.26475325 -0.92312839 12.4247882 -3 14 C-6.1875 14.1875 -6.1875 14.1875 -9 14 C-8.21625 13.34 -7.4325 12.68 -6.625 12 C-3.35534881 8.26325578 -3.03645347 5.78363138 -2 1 C-1.34 0.67 -0.68 0.34 0 0 Z " fill="#BC3044" transform="translate(74,67)"/>
<path d="M0 0 C0.66 0 1.32 0 2 0 C-0.18787679 7.65756875 -3.43960837 12.0359922 -10.09765625 16.21484375 C-12 17 -12 17 -15 16 C-14.34 15.01 -13.68 14.02 -13 13 C-9.875 12.8125 -9.875 12.8125 -7 13 C-7 12.34 -7 11.68 -7 11 C-6.34 10.67 -5.68 10.34 -5 10 C-4.690625 9.175 -4.38125 8.35 -4.0625 7.5 C-3.711875 6.675 -3.36125 5.85 -3 5 C-2.01 4.67 -1.02 4.34 0 4 C0 2.68 0 1.36 0 0 Z " fill="#B94F60" transform="translate(89,78)"/>
<path d="M0 0 C-0.99 0.495 -0.99 0.495 -2 1 C-1.34 1.99 -0.68 2.98 0 4 C0.33 4.66 0.66 5.32 1 6 C0.67 6.66 0.34 7.32 0 8 C-0.66 8 -1.32 8 -2 8 C-2 9.32 -2 10.64 -2 12 C-2.66 12 -3.32 12 -4 12 C-4.33 8.7 -4.66 5.4 -5 2 C-6.65 2 -8.3 2 -10 2 C-6.3558226 -0.4294516 -4.28758728 -0.16179575 0 0 Z " fill="#F7C20E" transform="translate(230,118)"/>
<path d="M0 0 C0 0.99 0 1.98 0 3 C-1.32 3.33 -2.64 3.66 -4 4 C-3.67 6.31 -3.34 8.62 -3 11 C-1.02 11 0.96 11 3 11 C3 10.34 3 9.68 3 9 C4.32 9.33 5.64 9.66 7 10 C5.76115681 10.72767003 4.50831659 11.43154815 3.25 12.125 C2.55390625 12.51945312 1.8578125 12.91390625 1.140625 13.3203125 C-1 14 -1 14 -3.21875 13.40625 C-5 12 -5 12 -5.609375 9.8359375 C-5.65578125 9.02382813 -5.7021875 8.21171875 -5.75 7.375 C-5.80671875 6.55773438 -5.8634375 5.74046875 -5.921875 4.8984375 C-5.94765625 4.27195312 -5.9734375 3.64546875 -6 3 C-4.02 2.01 -2.04 1.02 0 0 Z " fill="#BB5963" transform="translate(225,43)"/>
<path d="M0 0 C0.33 0 0.66 0 1 0 C1.33 2.31 1.66 4.62 2 7 C3.32 7 4.64 7 6 7 C6.33 4.69 6.66 2.38 7 0 C8.32 0.33 9.64 0.66 11 1 C11 1.99 11 2.98 11 4 C10.34 4 9.68 4 9 4 C8.67 5.65 8.34 7.3 8 9 C5.1875 9.6875 5.1875 9.6875 2 10 C0.125 8.5625 0.125 8.5625 -1 7 C-0.67 6.34 -0.34 5.68 0 5 C-0.66 4.67 -1.32 4.34 -2 4 C-1.34 2.68 -0.68 1.36 0 0 Z M9 1 C10 3 10 3 10 3 Z " fill="#FCD551" transform="translate(105,135)"/>
<path d="M0 0 C0 0.33 0 0.66 0 1 C-7.41430591 2.83717315 -14.37685526 3.23576736 -22 3 C-22 5.97 -22 8.94 -22 12 C-22.33 12 -22.66 12 -23 12 C-23 8.7 -23 5.4 -23 2 C-15.2472493 0.48462814 -7.89957062 -0.27990605 0 0 Z " fill="#F0D26B" transform="translate(100,122)"/>
<path d="M0 0 C0.70125 -0.02578125 1.4025 -0.0515625 2.125 -0.078125 C2.74375 0.03015625 3.3625 0.1384375 4 0.25 C4.66 1.24 5.32 2.23 6 3.25 C5.67 4.24 5.34 5.23 5 6.25 C4.01 5.59 3.02 4.93 2 4.25 C-1.4103976 4.03685015 -3.74531799 4.165106 -7 5.25 C-6.625 3.3125 -6.625 3.3125 -6 1.25 C-3.78704384 0.14352192 -2.45327301 0.05411632 0 0 Z " fill="#F2C042" transform="translate(110,129.75)"/>
<path d="M0 0 C0 0.66 0 1.32 0 2 C0.99 2.33 1.98 2.66 3 3 C-2.01372252 6.52913975 -5.83543922 8.61471495 -12 9 C-9.77810176 6.77810176 -7.91517292 6.07401108 -5 5 C-5.33 4.34 -5.66 3.68 -6 3 C-3.375 0 -3.375 0 0 0 Z " fill="#C32515" transform="translate(208,110)"/>
<path d="M0 0 C0.66 0 1.32 0 2 0 C0.19729304 5.73588578 -3.87308451 9.9238507 -9 13 C-9.99 12.67 -10.98 12.34 -12 12 C-10.68 11.67 -9.36 11.34 -8 11 C-8 10.01 -8 9.02 -8 8 C-7.34 8 -6.68 8 -6 8 C-6 7.01 -6 6.02 -6 5 C-5.38125 4.731875 -4.7625 4.46375 -4.125 4.1875 C-1.7004767 3.04443152 -1.7004767 3.04443152 0 0 Z " fill="#BB4959" transform="translate(151,82)"/>
<path d="M0 0 C0.33 0.66 0.66 1.32 1 2 C6.94 1.67 12.88 1.34 19 1 C15.90099517 3.06600322 15.10932951 3.25887231 11.578125 3.34375 C10.71703125 3.37339844 9.8559375 3.40304688 8.96875 3.43359375 C8.0715625 3.45550781 7.174375 3.47742188 6.25 3.5 C0.14693102 3.65168446 -5.19503296 4.03328986 -11 6 C-8.875 3.4375 -8.875 3.4375 -6 1 C-2.6875 1.1875 -2.6875 1.1875 0 2 C0 1.34 0 0.68 0 0 Z " fill="#E0A837" transform="translate(220,109)"/>
<path d="M0 0 C1.10844919 3.32534757 0.84454356 5.62182575 0 9 C1.32 9 2.64 9 4 9 C4 9.66 4 10.32 4 11 C2.35 11 0.7 11 -1 11 C-1 8.36 -1 5.72 -1 3 C-3.64 3 -6.28 3 -9 3 C-9 2.34 -9 1.68 -9 1 C-5.846632 0.29925156 -3.27275026 0 0 0 Z " fill="#483D1C" transform="translate(253,106)"/>
<path d="M0 0 C9.64062772 -0.46837058 17.09349655 -0.14772718 26 4 C26 4.33 26 4.66 26 5 C24.35 5 22.7 5 21 5 C21 4.34 21 3.68 21 3 C20.32195312 3.02320313 19.64390625 3.04640625 18.9453125 3.0703125 C12.35832764 3.19803797 6.39889559 2.55461238 0 1 C0 0.67 0 0.34 0 0 Z " fill="#C6616D" transform="translate(117,33)"/>
<path d="M0 0 C0.33 0 0.66 0 1 0 C0.896875 0.7425 0.79375 1.485 0.6875 2.25 C0.72669547 5.22452871 0.72669547 5.22452871 3.375 7.25 C5.83978847 8.97157537 5.83978847 8.97157537 8 10 C8 9.01 8 8.02 8 7 C9.32 6.67 10.64 6.34 12 6 C11.34 7.65 10.68 9.3 10 11 C7.36 11 4.72 11 2 11 C1.67 9.68 1.34 8.36 1 7 C0.34 7 -0.32 7 -1 7 C-0.67 4.69 -0.34 2.38 0 0 Z " fill="#FACF5C" transform="translate(136,131)"/>
<path d="M0 0 C1.2375 0.7115625 1.2375 0.7115625 2.5 1.4375 C6.52795901 3.23569599 9.63173579 3.6234255 14 4 C14 4.66 14 5.32 14 6 C8.55306686 6.09688221 3.36095333 6.12862175 -2 5 C-1.01 4.67 -0.02 4.34 1 4 C0.67 2.68 0.34 1.36 0 0 Z " fill="#BA394B" transform="translate(116,79)"/>
<path d="M0 0 C0.33 0.66 0.66 1.32 1 2 C0.01 3.485 0.01 3.485 -1 5 C-1.39013716 6.9896995 -1.73202649 8.99019869 -2 11 C-2.66 11 -3.32 11 -4 11 C-4 13.31 -4 15.62 -4 18 C-4.66 17.67 -5.32 17.34 -6 17 C-5.70638989 10.52589703 -4.80571463 4.80571463 0 0 Z " fill="#C1505E" transform="translate(163,42)"/>
<path d="M0 0 C4.29 0 8.58 0 13 0 C13 0.66 13 1.32 13 2 C8.15758367 3.33583899 4.06562383 4.25328119 -1 4 C-0.67 2.68 -0.34 1.36 0 0 Z " fill="#535552" transform="translate(239,104)"/>
<path d="M0 0 C0 0.66 0 1.32 0 2 C1.32 2.33 2.64 2.66 4 3 C3.01 5.64 2.02 8.28 1 11 C0.67 11 0.34 11 0 11 C0 9.02 0 7.04 0 5 C-0.99 4.67 -1.98 4.34 -3 4 C-2.34 4 -1.68 4 -1 4 C-1 3.34 -1 2.68 -1 2 C-2.32 2.33 -3.64 2.66 -5 3 C-5 2.34 -5 1.68 -5 1 C-2 0 -2 0 0 0 Z " fill="#F4C314" transform="translate(132,127)"/>
<path d="M0 0 C0.845625 0.144375 1.69125 0.28875 2.5625 0.4375 C6.03593149 1.0058797 9.51445662 1.51202393 13 2 C13 2.33 13 2.66 13 3 C12.07767578 2.93039063 12.07767578 2.93039063 11.13671875 2.859375 C8.70254825 2.75067201 6.42063598 2.70815027 4 3 C1.87644433 4.82271927 1.87644433 4.82271927 1 7 C-0.0625 5.1875 -0.0625 5.1875 -1 3 C-0.67 2.01 -0.34 1.02 0 0 Z " fill="#BD162E" transform="translate(175,64)"/>
<path d="M0 0 C-0.639375 0.103125 -1.27875 0.20625 -1.9375 0.3125 C-2.618125 0.539375 -3.29875 0.76625 -4 1 C-4.33 1.99 -4.66 2.98 -5 4 C-6.62332967 5.38576923 -8.28724465 6.72641268 -10 8 C-10.33 6.68 -10.66 5.36 -11 4 C-4.45754717 -1.33726415 -4.45754717 -1.33726415 0 0 Z " fill="#BD4255" transform="translate(210,28)"/>
<path d="M0 0 C2.64 0 5.28 0 8 0 C8 0.33 8 0.66 8 1 C6.35 1 4.7 1 3 1 C3.33 2.32 3.66 3.64 4 5 C5.98 4.67 7.96 4.34 10 4 C10 4.66 10 5.32 10 6 C8.02 6.33 6.04 6.66 4 7 C3.566875 6.0409375 3.566875 6.0409375 3.125 5.0625 C2.17176549 2.84793921 2.17176549 2.84793921 0 2 C0 1.34 0 0.68 0 0 Z " fill="#F6BC15" transform="translate(89,136)"/>
<path d="M0 0 C0 0.33 0 0.66 0 1 C-6.37305598 1.74507544 -12.58311325 2.10349817 -19 2 C-18.67 1.34 -18.34 0.68 -18 0 C-11.9260886 -1.45245707 -6.15065277 -0.72295195 0 0 Z " fill="#F3D46A" transform="translate(254,141)"/>
<path d="M0 0 C0.33 0 0.66 0 1 0 C1 3.3 1 6.6 1 10 C0.34 10 -0.32 10 -1 10 C-1 9.01 -1 8.02 -1 7 C-2.65 6.67 -4.3 6.34 -6 6 C-5.67 5.34 -5.34 4.68 -5 4 C-2.4375 3.375 -2.4375 3.375 0 3 C0 2.01 0 1.02 0 0 Z " fill="#F3C220" transform="translate(200,123)"/>
<path d="M0 0 C1.258125 -0.020625 2.51625 -0.04125 3.8125 -0.0625 C4.52019531 -0.07410156 5.22789063 -0.08570313 5.95703125 -0.09765625 C8 0 8 0 11 1 C12.99961564 1.03920815 15.00049364 1.04443347 17 1 C17 1.33 17 1.66 17 2 C12.53763531 3.80619523 9.68965706 4.11658501 5 3 C5 2.34 5 1.68 5 1 C3.35 1 1.7 1 0 1 C0 0.67 0 0.34 0 0 Z " fill="#B81629" transform="translate(117,34)"/>
<path d="M0 0 C6.625 0.625 6.625 0.625 10 4 C3.565 4.495 3.565 4.495 -3 5 C-3 4.67 -3 4.34 -3 4 C-1.35 4 0.3 4 2 4 C2 3.01 2 2.02 2 1 C1.34 0.67 0.68 0.34 0 0 Z " fill="#F8BC10" transform="translate(121,140)"/>
<path d="M0 0 C3.63 0.33 7.26 0.66 11 1 C11.33 2.32 11.66 3.64 12 5 C11.67 4.34 11.34 3.68 11 3 C10.37351563 3.0721875 9.74703125 3.144375 9.1015625 3.21875 C7.87566406 3.35796875 7.87566406 3.35796875 6.625 3.5 C5.40683594 3.63921875 5.40683594 3.63921875 4.1640625 3.78125 C2 4 2 4 0 4 C0 2.68 0 1.36 0 0 Z " fill="#F6BB25" transform="translate(186,121)"/>
<path d="M0 0 C0.99 0 1.98 0 3 0 C1.60846256 4.42761914 -0.52071486 6.9556255 -4 10 C-4.66 10 -5.32 10 -6 10 C-5.34 8.35 -4.68 6.7 -4 5 C-3.01 5 -2.02 5 -1 5 C-0.67 3.35 -0.34 1.7 0 0 Z " fill="#C04C5A" transform="translate(238,42)"/>
<path d="M0 0 C0.5534764 2.07553648 1 3.84365964 1 6 C2.65 6.33 4.3 6.66 6 7 C5.67 7.99 5.34 8.98 5 10 C2.125 9.6875 2.125 9.6875 -1 9 C-1.66 8.01 -2.32 7.02 -3 6 C-2.34 6 -1.68 6 -1 6 C-0.67 4.02 -0.34 2.04 0 0 Z " fill="#EDC329" transform="translate(139,130)"/>
<path d="M0 0 C2.97 0 5.94 0 9 0 C8.67 1.32 8.34 2.64 8 4 C7.67 3.34 7.34 2.68 7 2 C6.34 2 5.68 2 5 2 C4.67 3.32 4.34 4.64 4 6 C3.34 6 2.68 6 2 6 C1.34 4.02 0.68 2.04 0 0 Z " fill="#EEC335" transform="translate(216,120)"/>
<path d="M0 0 C6.40096618 0.36231884 6.40096618 0.36231884 8.9375 3.0625 C10.33579156 6.92836491 10.20837644 9.90193009 10 14 C7.78600697 10.20458337 6.99019802 6.24370579 6 2 C3.03 1.505 3.03 1.505 0 1 C0 0.67 0 0.34 0 0 Z " fill="#C8506E" transform="translate(63,46)"/>
<path d="M0 0 C0.33 0.99 0.66 1.98 1 3 C0.01 3 -0.98 3 -2 3 C-2.66 4.32 -3.32 5.64 -4 7 C-3.01 7 -2.02 7 -1 7 C-1 7.66 -1 8.32 -1 9 C-2.98 9 -4.96 9 -7 9 C-6.34 6.69 -5.68 4.38 -5 2 C-3.35 2 -1.7 2 0 2 C0 1.34 0 0.68 0 0 Z " fill="#F7BD4D" transform="translate(209,127)"/>
<path d="M0 0 C0 1.65 0 3.3 0 5 C-0.66 5 -1.32 5 -2 5 C-2.33 4.01 -2.66 3.02 -3 2 C-5.97 1.67 -8.94 1.34 -12 1 C-12 0.67 -12 0.34 -12 0 C-7.66726186 -0.92844389 -4.33273814 -0.92844389 0 0 Z " fill="#FABF0A" transform="translate(200,121)"/>
<path d="M0 0 C1.32 0.99 2.64 1.98 4 3 C-0.62 3 -5.24 3 -10 3 C-6.27423274 0.51615516 -4.47435687 -0.42612923 0 0 Z " fill="#F2B041" transform="translate(164,115)"/>
<path d="M0 0 C1.0625 1.8125 1.0625 1.8125 2 4 C1.67 4.99 1.34 5.98 1 7 C-3.25566547 8.16063604 -6.6835078 7.76173392 -11 7 C-11 6.67 -11 6.34 -11 6 C-9.741875 5.938125 -8.48375 5.87625 -7.1875 5.8125 C-4.99662023 5.61479712 -4.99662023 5.61479712 -3 5 C-0.93545998 2.59256899 -0.93545998 2.59256899 0 0 Z " fill="#D56572" transform="translate(192,59)"/>
<path d="M0 0 C0.99 0.33 1.98 0.66 3 1 C2.68289062 1.70511719 2.36578125 2.41023438 2.0390625 3.13671875 C0.95461714 6.12505879 0.6035641 8.65069658 0.375 11.8125 C0.30023438 12.78832031 0.22546875 13.76414062 0.1484375 14.76953125 C0.09945312 15.50558594 0.05046875 16.24164063 0 17 C-0.33 17 -0.66 17 -1 17 C-1.02684679 14.35409986 -1.04676357 11.70846904 -1.0625 9.0625 C-1.07087891 8.30775391 -1.07925781 7.55300781 -1.08789062 6.77539062 C-1.09652441 4.85005687 -1.05224333 2.92464419 -1 1 C-0.67 0.67 -0.34 0.34 0 0 Z " fill="#AF2438" transform="translate(113,54)"/>
<path d="M0 0 C0.99 0.33 1.98 0.66 3 1 C2.67 2.65 2.34 4.3 2 6 C0.68 5.67 -0.64 5.34 -2 5 C-2 3.68 -2 2.36 -2 1 C-1.34 0.67 -0.68 0.34 0 0 Z " fill="#F9BF09" transform="translate(109,135)"/>
<path d="M0 0 C0.66 0.66 1.32 1.32 2 2 C1.1875 4.9375 1.1875 4.9375 0 8 C-0.99 8.33 -1.98 8.66 -3 9 C-2.4140625 2.84765625 -2.4140625 2.84765625 -2 1 C-1.34 0.67 -0.68 0.34 0 0 Z " fill="#C43549" transform="translate(74,67)"/>
<path d="M0 0 C0.33 1.32 0.66 2.64 1 4 C-0.32 4 -1.64 4 -3 4 C-3 4.66 -3 5.32 -3 6 C-4.98 6 -6.96 6 -9 6 C-9.33 5.34 -9.66 4.68 -10 4 C-7 3 -7 3 -4 3 C-2.66018514 2.6937566 -1.32488113 2.36548445 0 2 C0 1.34 0 0.68 0 0 Z " fill="#FDD04F" transform="translate(99,140)"/>
<path d="M0 0 C2.59487555 1.29743778 3.02269781 2.29362471 4 5 C3.625 7.75 3.625 7.75 3 10 C1.5 8.9375 1.5 8.9375 0 7 C-0.1875 3.3125 -0.1875 3.3125 0 0 Z " fill="#F2CF4C" transform="translate(118,131)"/>
<path d="M0 0 C2.97 0.495 2.97 0.495 6 1 C6 1.99 6 2.98 6 4 C4.35 4 2.7 4 1 4 C0.67 2.68 0.34 1.36 0 0 Z " fill="#B82C37" transform="translate(159,111)"/>
<path d="M0 0 C0.66 0 1.32 0 2 0 C2 1.65 2 3.3 2 5 C1.360625 5.103125 0.72125 5.20625 0.0625 5.3125 C-0.618125 5.539375 -1.29875 5.76625 -2 6 C-2.33 6.99 -2.66 7.98 -3 9 C-3.99 8.34 -4.98 7.68 -6 7 C-5.195625 6.401875 -4.39125 5.80375 -3.5625 5.1875 C-0.77672016 3.19052724 -0.77672016 3.19052724 0 0 Z " fill="#BD4859" transform="translate(134,75)"/>
<path d="M0 0 C0.66 0.33 1.32 0.66 2 1 C2.4140625 3.28515625 2.4140625 3.28515625 2.625 6.0625 C2.69976562 6.98160156 2.77453125 7.90070313 2.8515625 8.84765625 C2.92503906 9.91306641 2.92503906 9.91306641 3 11 C2.34 10.67 1.68 10.34 1 10 C0.33203125 7.96875 0.33203125 7.96875 -0.1875 5.5 C-0.36667969 4.6853125 -0.54585938 3.870625 -0.73046875 3.03125 C-0.81941406 2.3609375 -0.90835938 1.690625 -1 1 C-0.67 0.67 -0.34 0.34 0 0 Z " fill="#C14C5A" transform="translate(95,74)"/>
<path d="M0 0 C1.32 0.33 2.64 0.66 4 1 C3.34 3.64 2.68 6.28 2 9 C1.01 8.67 0.02 8.34 -1 8 C-1.33 7.01 -1.66 6.02 -2 5 C-1.01 5 -0.02 5 1 5 C0.67 3.35 0.34 1.7 0 0 Z " fill="#565555" transform="translate(360,57)"/>
<path d="M0 0 C3.96 0 7.92 0 12 0 C12 0.33 12 0.66 12 1 C7.545 1.495 7.545 1.495 3 2 C3.33 2.99 3.66 3.98 4 5 C2.68 4.67 1.36 4.34 0 4 C0 2.68 0 1.36 0 0 Z " fill="#B84050" transform="translate(205,40)"/>
<path d="M0 0 C1.32 0.33 2.64 0.66 4 1 C4.33 2.65 4.66 4.3 5 6 C3.68 6 2.36 6 1 6 C1 5.01 1 4.02 1 3 C0.67 2.01 0.34 1.02 0 0 Z " fill="#F6D446" transform="translate(127,136)"/>
<path d="M0 0 C1.32 0 2.64 0 4 0 C3.67 1.32 3.34 2.64 3 4 C0.36 4 -2.28 4 -5 4 C-4.34 3.34 -3.68 2.68 -3 2 C-2.01 2 -1.02 2 0 2 C0 1.34 0 0.68 0 0 Z " fill="#F6C443" transform="translate(94,132)"/>
<path d="M0 0 C0.66 0 1.32 0 2 0 C2.33 2.64 2.66 5.28 3 8 C2.34 7.67 1.68 7.34 1 7 C0.34 7.66 -0.32 8.32 -1 9 C-1.125 2.25 -1.125 2.25 0 0 Z " fill="#FAD95A" transform="translate(160,130)"/>
<path d="M0 0 C5.875 3.75 5.875 3.75 7 6 C5.35 6 3.7 6 2 6 C1.67 5.01 1.34 4.02 1 3 C0.34 2.67 -0.32 2.34 -1 2 C-0.67 1.34 -0.34 0.68 0 0 Z " fill="#C04656" transform="translate(79,33)"/>
<path d="M0 0 C0.33 0 0.66 0 1 0 C1.16852247 1.60397277 1.33474886 3.2081869 1.5 4.8125 C1.5928125 5.70582031 1.685625 6.59914063 1.78125 7.51953125 C2 10 2 10 2 13 C1.34 12.67 0.68 12.34 0 12 C-0.44921875 10.0390625 -0.44921875 10.0390625 -0.6875 7.625 C-0.77386719 6.83351563 -0.86023438 6.04203125 -0.94921875 5.2265625 C-1 3 -1 3 0 0 Z " fill="#BF4F5E" transform="translate(220,20)"/>
<path d="M0 0 C0.33 0 0.66 0 1 0 C1.185625 1.7015625 1.185625 1.7015625 1.375 3.4375 C1.684375 5.2009375 1.684375 5.2009375 2 7 C2.66 7.33 3.32 7.66 4 8 C1.03 7.505 1.03 7.505 -2 7 C-1.125 1.125 -1.125 1.125 0 0 Z " fill="#F0C430" transform="translate(102,136)"/>
<path d="M0 0 C1.65 0.33 3.3 0.66 5 1 C5.33 1.99 5.66 2.98 6 4 C2.98968256 4.93423645 2.13349732 5.04449911 -1 4 C-0.67 2.68 -0.34 1.36 0 0 Z " fill="#F2C516" transform="translate(98,132)"/>
<path d="M0 0 C-0.99 1.98 -1.98 3.96 -3 6 C-3.66 5.67 -4.32 5.34 -5 5 C-5 4.34 -5 3.68 -5 3 C-5.66 3 -6.32 3 -7 3 C-7 2.34 -7 1.68 -7 1 C-4.53721199 -0.231394 -2.7204945 -0.07159196 0 0 Z " fill="#F4AF1D" transform="translate(245,117)"/>
<path d="M0 0 C1.65 0 3.3 0 5 0 C4.01 0.495 4.01 0.495 3 1 C3 1.66 3 2.32 3 3 C2.34 3 1.68 3 1 3 C1 4.32 1 5.64 1 7 C1.99 7.33 2.98 7.66 4 8 C2.68 8.33 1.36 8.66 0 9 C0 6.03 0 3.06 0 0 Z " fill="#C23F54" transform="translate(173,97)"/>
<path d="M0 0 C0.99 0.495 0.99 0.495 2 1 C2.625 4.0625 2.625 4.0625 3 7 C3.99 7.33 4.98 7.66 6 8 C4.68 8.33 3.36 8.66 2 9 C-0.29013653 5.5647952 -0.17842973 4.014669 0 0 Z " fill="#C35D67" transform="translate(175,56)"/>
<path d="M0 0 C0 0.66 0 1.32 0 2 C-0.66 2 -1.32 2 -2 2 C-2 2.66 -2 3.32 -2 4 C-4.90600261 5.25664978 -6.79604584 6 -10 6 C-8.71283353 4.99421411 -7.42011342 3.99553202 -6.125 3 C-5.40570313 2.443125 -4.68640625 1.88625 -3.9453125 1.3125 C-2 0 -2 0 0 0 Z " fill="#BE4F62" transform="translate(112,35)"/>
<path d="M0 0 C2.31 0 4.62 0 7 0 C7 0.99 7 1.98 7 3 C5.02 3 3.04 3 1 3 C0.67 2.01 0.34 1.02 0 0 Z " fill="#FCCF1A" transform="translate(163,136)"/>
<path d="M0 0 C2.49361571 1.20381448 4.68143083 2.45428722 7 4 C6 5 6 5 2.9375 5.0625 C1.4834375 5.0315625 1.4834375 5.0315625 0 5 C0 3.35 0 1.7 0 0 Z " fill="#35322E" transform="translate(253,110)"/>
<path d="M0 0 C1.4540625 0.0309375 1.4540625 0.0309375 2.9375 0.0625 C0.76325883 2.56287734 -0.79295798 3.49878586 -4.0625 4.0625 C-4.0625 0.08290816 -4.0625 0.08290816 0 0 Z " fill="#BA3646" transform="translate(79.0625,90.9375)"/>
<path d="M0 0 C0.99 0 1.98 0 3 0 C3 0.66 3 1.32 3 2 C3.66 2 4.32 2 5 2 C5 2.66 5 3.32 5 4 C3.02 4.33 1.04 4.66 -1 5 C-0.67 3.35 -0.34 1.7 0 0 Z " fill="#B6182B" transform="translate(174,73)"/>
<path d="M0 0 C-0.33 1.32 -0.66 2.64 -1 4 C-4.3 3.34 -7.6 2.68 -11 2 C-11 1.67 -11 1.34 -11 1 C-3.375 0 -3.375 0 0 0 Z " fill="#BA4958" transform="translate(132,47)"/>
<path d="M0 0 C0 0.66 0 1.32 0 2 C0.99 2.33 1.98 2.66 3 3 C-0.3 3.66 -3.6 4.32 -7 5 C-2.25 0 -2.25 0 0 0 Z " fill="#C14E5B" transform="translate(171,37)"/>
<path d="M0 0 C3 1 3 1 3 1 Z M-4 1 C-2.68 1.33 -1.36 1.66 0 2 C-2 4 -2 4 -3.9453125 4.1953125 C-5.96354167 4.13020833 -7.98177083 4.06510417 -10 4 C-10 3.67 -10 3.34 -10 3 C-8.02 3 -6.04 3 -4 3 C-4 2.34 -4 1.68 -4 1 Z " fill="#EFBB16" transform="translate(100,143)"/>
<path d="M0 0 C0.99 0 1.98 0 3 0 C3.33 2.31 3.66 4.62 4 7 C3.34 7 2.68 7 2 7 C2 6.34 2 5.68 2 5 C1.34 5 0.68 5 0 5 C0 3.35 0 1.7 0 0 Z " fill="#FECD5C" transform="translate(151,128)"/>
<path d="M0 0 C0.99 0.33 1.98 0.66 3 1 C3 1.66 3 2.32 3 3 C3.99 3.66 4.98 4.32 6 5 C3.69 5.33 1.38 5.66 -1 6 C-0.67 4.02 -0.34 2.04 0 0 Z " fill="#F4C863" transform="translate(239,126)"/>
<path d="M0 0 C0 0.66 0 1.32 0 2 C-0.66 2 -1.32 2 -2 2 C-2.33 2.99 -2.66 3.98 -3 5 C-3.99 4.67 -4.98 4.34 -6 4 C-6 3.01 -6 2.02 -6 1 C-3.92446352 0.4465236 -2.15634036 0 0 0 Z " fill="#B82842" transform="translate(55,49)"/>
<path d="M0 0 C0.66 0 1.32 0 2 0 C2.33 1.32 2.66 2.64 3 4 C3.66 4 4.32 4 5 4 C4.67 4.66 4.34 5.32 4 6 C2.68 5.67 1.36 5.34 0 5 C0 3.35 0 1.7 0 0 Z " fill="#F0C232" transform="translate(122,135)"/>
<path d="M0 0 C0.33 0.99 0.66 1.98 1 3 C-1.3125 3.625 -1.3125 3.625 -4 4 C-4.99 3.34 -5.98 2.68 -7 2 C-4 0 -4 0 0 0 Z " fill="#F6C310" transform="translate(96,129)"/>
<path d="M0 0 C-0.66 1.32 -1.32 2.64 -2 4 C-4.97 3.505 -4.97 3.505 -8 3 C-5.53387212 -0.1151089 -3.89156016 -0.31553191 0 0 Z " fill="#FACB18" transform="translate(213,126)"/>
<path d="M0 0 C2.16874252 0.50603992 3.99967627 0.99983813 6 2 C6 2.99 6 3.98 6 5 C4.68 5.33 3.36 5.66 2 6 C2 4.35 2 2.7 2 1 C1.34 0.67 0.68 0.34 0 0 Z " fill="#FDD472" transform="translate(219,121)"/>
<path d="M0 0 C0.33 0.66 0.66 1.32 1 2 C1.66 2.33 2.32 2.66 3 3 C3.33 3.99 3.66 4.98 4 6 C3.34 6 2.68 6 2 6 C1.67 6.99 1.34 7.98 1 9 C0.67 6.03 0.34 3.06 0 0 Z " fill="#EFCC56" transform="translate(213,123)"/>
<path d="M0 0 C0.66 0.33 1.32 0.66 2 1 C0.35 2.65 -1.3 4.3 -3 6 C-3.66 5.67 -4.32 5.34 -5 5 C-3.35 3.35 -1.7 1.7 0 0 Z " fill="#C34F60" transform="translate(163,74)"/>
<path d="M0 0 C0 0.99 0 1.98 0 3 C-1.32 3.33 -2.64 3.66 -4 4 C-4 4.66 -4 5.32 -4 6 C-4.66 6 -5.32 6 -6 6 C-6 5.01 -6 4.02 -6 3 C-4.02 2.01 -2.04 1.02 0 0 Z " fill="#C8505E" transform="translate(225,43)"/>
<path d="M0 0 C0.66 0.33 1.32 0.66 2 1 C2 1.99 2 2.98 2 4 C0.35 4 -1.3 4 -3 4 C-2.01 2.68 -1.02 1.36 0 0 Z M3 1 C7 2 7 2 7 2 Z " fill="#C43147" transform="translate(55,34)"/>
</svg>
